<?xml version="1.0" encoding="UTF-8"?>
<!DOCTYPE svg PUBLIC "-//W3C//DTD SVG 1.1//EN" "http://www.w3.org/Graphics/SVG/1.1/DTD/svg11.dtd">
<svg xmlns="http://www.w3.org/2000/svg" version="1.1" width="500px" height="500px" style="shape-rendering:geometricPrecision; text-rendering:geometricPrecision; image-rendering:optimizeQuality; fill-rule:evenodd; clip-rule:evenodd" xmlns:xlink="http://www.w3.org/1999/xlink">
<g><path style="opacity:1" fill="#d0d0d0" d="M -0.5,-0.5 C 23.1667,-0.5 46.8333,-0.5 70.5,-0.5C 66.2366,2.98093 61.9032,6.48093 57.5,10C 53.7363,11.3125 50.4029,13.1458 47.5,15.5C 47.6495,16.552 47.4828,17.552 47,18.5C 44.5641,20.4673 42.0641,22.134 39.5,23.5C 39.6495,24.552 39.4828,25.552 39,26.5C 36.5641,28.4673 34.0641,30.134 31.5,31.5C 31.6495,32.552 31.4828,33.552 31,34.5C 28.5641,36.4673 26.0641,38.134 23.5,39.5C 23.6495,40.552 23.4828,41.552 23,42.5C 20.5641,44.4673 18.0641,46.134 15.5,47.5C 15.6495,48.552 15.4828,49.552 15,50.5C 13.0283,51.3052 11.5283,52.6385 10.5,54.5C 10.7093,55.086 11.0426,55.586 11.5,56C 9.02944,58.2091 6.69611,60.5424 4.5,63C 5.16667,63.3333 5.83333,63.6667 6.5,64C 4.78853,66.5193 2.4552,68.0193 -0.5,68.5C -0.5,45.5 -0.5,22.5 -0.5,-0.5 Z"/></g>
<g><path style="opacity:1" fill="#d7d7d7" d="M 70.5,-0.5 C 80.1667,-0.5 89.8333,-0.5 99.5,-0.5C 96.8216,4.84063 92.4883,7.67396 86.5,8C 84.9242,10.0771 82.9242,11.5771 80.5,12.5C 79.4159,15.0879 77.7493,17.2545 75.5,19C 70.4797,22.0318 65.4797,25.0318 60.5,28C 59.3146,30.057 58.3146,32.057 57.5,34C 53.7363,35.3125 50.4029,37.1458 47.5,39.5C 47.6495,40.552 47.4828,41.552 47,42.5C 44.5641,44.4673 42.0641,46.134 39.5,47.5C 39.6495,48.552 39.4828,49.552 39,50.5C 37.0283,51.3052 35.5283,52.6385 34.5,54.5C 34.7093,55.086 35.0426,55.586 35.5,56C 32.6855,57.8315 29.8522,59.6648 27,61.5C 26.3828,62.4491 26.5494,63.2825 27.5,64C 25.0294,66.2091 22.6961,68.5424 20.5,71C 21.1667,71.3333 21.8333,71.6667 22.5,72C 20.9242,74.0771 18.9242,75.5771 16.5,76.5C 15.6922,78.4233 15.1922,80.4233 15,82.5C 12.5641,84.4673 10.0641,86.134 7.5,87.5C 5.57167,94.1064 2.905,100.44 -0.5,106.5C -0.5,93.8333 -0.5,81.1667 -0.5,68.5C 2.4552,68.0193 4.78853,66.5193 6.5,64C 5.83333,63.6667 5.16667,63.3333 4.5,63C 6.69611,60.5424 9.02944,58.2091 11.5,56C 11.0426,55.586 10.7093,55.086 10.5,54.5C 11.5283,52.6385 13.0283,51.3052 15,50.5C 15.4828,49.552 15.6495,48.552 15.5,47.5C 18.0641,46.134 20.5641,44.4673 23,42.5C 23.4828,41.552 23.6495,40.552 23.5,39.5C 26.0641,38.134 28.5641,36.4673 31,34.5C 31.4828,33.552 31.6495,32.552 31.5,31.5C 34.0641,30.134 36.5641,28.4673 39,26.5C 39.4828,25.552 39.6495,24.552 39.5,23.5C 42.0641,22.134 44.5641,20.4673 47,18.5C 47.4828,17.552 47.6495,16.552 47.5,15.5C 50.4029,13.1458 53.7363,11.3125 57.5,10C 61.9032,6.48093 66.2366,2.98093 70.5,-0.5 Z"/></g>
<g><path style="opacity:1" fill="#dddddd" d="M 99.5,-0.5 C 111.167,-0.5 122.833,-0.5 134.5,-0.5C 130.169,4.16595 124.836,6.99928 118.5,8C 113.986,11.0912 109.653,14.4245 105.5,18C 93.9589,24.9316 82.6255,32.0983 71.5,39.5C 71.6495,40.552 71.4828,41.552 71,42.5C 68.5641,44.4673 66.0641,46.134 63.5,47.5C 63.6495,48.552 63.4828,49.552 63,50.5C 60.5641,52.4673 58.0641,54.134 55.5,55.5C 55.6495,56.552 55.4828,57.552 55,58.5C 52.5641,60.4673 50.0641,62.134 47.5,63.5C 47.6495,64.552 47.4828,65.552 47,66.5C 44.5641,68.4673 42.0641,70.134 39.5,71.5C 39.6495,72.552 39.4828,73.552 39,74.5C 35.3511,75.7577 34.0178,78.0911 35,81.5C 34,82.5 33,83.5 32,84.5C 30.1735,83.1587 29.0069,83.6587 28.5,86C 28.9054,86.9454 29.572,87.6121 30.5,88C 27.681,90.575 24.681,92.9083 21.5,95C 22.428,95.3879 23.0946,96.0546 23.5,97C 22.3961,98.8204 20.8961,100.32 19,101.5C 19,102.833 19,104.167 19,105.5C 18,106.5 17,107.5 16,108.5C 15,107.167 14,107.167 13,108.5C 11.9101,114.68 9.24342,120.013 5,124.5C 4.69768,129.106 2.86435,132.773 -0.5,135.5C -0.5,125.833 -0.5,116.167 -0.5,106.5C 2.905,100.44 5.57167,94.1064 7.5,87.5C 10.0641,86.134 12.5641,84.4673 15,82.5C 15.1922,80.4233 15.6922,78.4233 16.5,76.5C 18.9242,75.5771 20.9242,74.0771 22.5,72C 21.8333,71.6667 21.1667,71.3333 20.5,71C 22.6961,68.5424 25.0294,66.2091 27.5,64C 26.5494,63.2825 26.3828,62.4491 27,61.5C 29.8522,59.6648 32.6855,57.8315 35.5,56C 35.0426,55.586 34.7093,55.086 34.5,54.5C 35.5283,52.6385 37.0283,51.3052 39,50.5C 39.4828,49.552 39.6495,48.552 39.5,47.5C 42.0641,46.134 44.5641,44.4673 47,42.5C 47.4828,41.552 47.6495,40.552 47.5,39.5C 50.4029,37.1458 53.7363,35.3125 57.5,34C 58.3146,32.057 59.3146,30.057 60.5,28C 65.4797,25.0318 70.4797,22.0318 75.5,19C 77.7493,17.2545 79.4159,15.0879 80.5,12.5C 82.9242,11.5771 84.9242,10.0771 86.5,8C 92.4883,7.67396 96.8216,4.84063 99.5,-0.5 Z"/></g>
<g><path style="opacity:1" fill="#e4e4e4" d="M 134.5,-0.5 C 153.5,-0.5 172.5,-0.5 191.5,-0.5C 189.052,0.473067 186.385,0.8064 183.5,0.5C 183.5,1.5 183.5,2.5 183.5,3.5C 180.833,3.5 178.167,3.5 175.5,3.5C 175.5,4.5 175.5,5.5 175.5,6.5C 169.93,5.59234 165.263,7.09234 161.5,11C 158.183,11.4983 154.85,11.665 151.5,11.5C 151.5,12.8333 151.5,14.1667 151.5,15.5C 144.94,15.7758 139.273,18.2758 134.5,23C 126.488,25.1742 119.488,29.1742 113.5,35C 109.333,35.1667 107.167,37.3333 107,41.5C 106.692,40.6919 106.192,40.0253 105.5,39.5C 100.833,42.5 96.1667,45.5 91.5,48.5C 89.3202,50.2608 87.6536,52.4274 86.5,55C 84.5,55.3333 82.5,55.6667 80.5,56C 79.9288,57.2051 79.2621,58.3717 78.5,59.5C 71.4291,66.9926 63.9291,73.9926 56,80.5C 55.6667,82.5 55.3333,84.5 55,86.5C 52.4274,87.6536 50.2608,89.3202 48.5,91.5C 45.0602,98.0608 40.8936,104.061 36,109.5C 36.1214,112.921 34.7881,115.588 32,117.5C 31.3086,115.109 30.3086,115.109 29,117.5C 28.8145,121.56 27.1478,125.227 24,128.5C 22.4541,134.259 19.7874,139.592 16,144.5C 15.7638,146.764 15.2638,148.931 14.5,151C 14.9574,151.414 15.2907,151.914 15.5,152.5C 13.3428,154.412 11.0094,156.079 8.5,157.5C 7.67855,160.447 7.17855,163.447 7,166.5C 5.43089,167.714 4.59755,169.381 4.5,171.5C 3.50319,178.14 2.83652,184.807 2.5,191.5C 1.5,191.5 0.5,191.5 -0.5,191.5C -0.5,172.833 -0.5,154.167 -0.5,135.5C 2.86435,132.773 4.69768,129.106 5,124.5C 9.24342,120.013 11.9101,114.68 13,108.5C 14,107.167 15,107.167 16,108.5C 17,107.5 18,106.5 19,105.5C 19,104.167 19,102.833 19,101.5C 20.8961,100.32 22.3961,98.8204 23.5,97C 23.0946,96.0546 22.428,95.3879 21.5,95C 24.681,92.9083 27.681,90.575 30.5,88C 29.572,87.6121 28.9054,86.9454 28.5,86C 29.0069,83.6587 30.1735,83.1587 32,84.5C 33,83.5 34,82.5 35,81.5C 34.0178,78.0911 35.3511,75.7577 39,74.5C 39.4828,73.552 39.6495,72.552 39.5,71.5C 42.0641,70.134 44.5641,68.4673 47,66.5C 47.4828,65.552 47.6495,64.552 47.5,63.5C 50.0641,62.134 52.5641,60.4673 55,58.5C 55.4828,57.552 55.6495,56.552 55.5,55.5C 58.0641,54.134 60.5641,52.4673 63,50.5C 63.4828,49.552 63.6495,48.552 63.5,47.5C 66.0641,46.134 68.5641,44.4673 71,42.5C 71.4828,41.552 71.6495,40.552 71.5,39.5C 82.6255,32.0983 93.9589,24.9316 105.5,18C 109.653,14.4245 113.986,11.0912 118.5,8C 124.836,6.99928 130.169,4.16595 134.5,-0.5 Z"/></g>
<g><path style="opacity:1" fill="#ebebeb" d="M 191.5,-0.5 C 230.167,-0.5 268.833,-0.5 307.5,-0.5C 308.25,3.3209 309.916,3.98757 312.5,1.5C 314.5,2.83333 316.5,4.16667 318.5,5.5C 320.505,2.97217 322.171,3.3055 323.5,6.5C 327.122,7.32528 330.789,7.82528 334.5,8C 337.029,10.0285 339.696,11.8619 342.5,13.5C 343.167,12.8333 343.833,12.1667 344.5,11.5C 348.52,15.7628 353.52,17.4295 359.5,16.5C 360.164,18.8669 361.497,20.8669 363.5,22.5C 367.496,22.8121 370.829,24.3121 373.5,27C 387.65,35.1561 401.317,43.9894 414.5,53.5C 416.139,57.1387 418.805,59.8054 422.5,61.5C 424.139,65.1387 426.805,67.8054 430.5,69.5C 431.167,70.8333 431.833,72.1667 432.5,73.5C 437.281,78.0327 442.281,82.366 447.5,86.5C 446.385,87.5984 446.385,88.7651 447.5,90C 451.567,93.6667 455.4,97.5 459,101.5C 459.333,102.833 459.667,104.167 460,105.5C 465.171,109.863 468.171,115.196 469,121.5C 473.333,128.167 477.667,134.833 482,141.5C 483.328,147.441 484.494,153.441 485.5,159.5C 487.003,160.052 488.669,160.052 490.5,159.5C 491.167,164.833 491.833,170.167 492.5,175.5C 493.5,175.5 494.5,175.5 495.5,175.5C 495.5,178.167 495.5,180.833 495.5,183.5C 496.833,183.5 498.167,183.5 499.5,183.5C 499.5,226.833 499.5,270.167 499.5,313.5C 498.167,313.5 496.833,313.5 495.5,313.5C 495.5,318.167 495.5,322.833 495.5,327.5C 494.167,327.5 492.833,327.5 491.5,327.5C 491.665,331.182 491.499,334.848 491,338.5C 490,339.5 489,340.5 488,341.5C 487.309,339.109 486.309,339.109 485,341.5C 484.667,344.833 484.333,348.167 484,351.5C 481.674,354.068 479.507,356.735 477.5,359.5C 476.682,362.107 476.182,364.774 476,367.5C 474.004,369.905 472.17,372.405 470.5,375C 471.167,375.333 471.833,375.667 472.5,376C 471,377.5 469.5,379 468,380.5C 467.667,382.5 467.333,384.5 467,386.5C 465.5,388 464,389.5 462.5,391C 462.957,391.414 463.291,391.914 463.5,392.5C 461.343,394.412 459.009,396.079 456.5,397.5C 455.833,399.5 455.167,401.5 454.5,403.5C 450.266,406.074 446.766,409.408 444,413.5C 443.833,417.667 441.667,419.833 437.5,420C 436.156,424.011 433.989,427.511 431,430.5C 428.332,433.162 425.165,434.996 421.5,436C 419.996,437.491 419.163,439.324 419,441.5C 414.989,442.844 411.489,445.011 408.5,448C 407.346,450.573 405.68,452.739 403.5,454.5C 399.032,457.137 394.698,459.97 390.5,463C 385.015,463.959 381.015,467.126 378.5,472.5C 379.641,473.425 379.641,474.259 378.5,475C 382.5,475.667 382.5,476.333 378.5,477C 377.586,479.597 375.919,479.93 373.5,478C 374.5,477.667 375.5,477.333 376.5,477C 375.328,476.581 374.328,475.915 373.5,475C 374.449,474.383 375.282,474.549 376,475.5C 376.692,474.975 377.192,474.308 377.5,473.5C 375.011,474.106 372.678,473.439 370.5,471.5C 369.818,472.243 369.151,472.909 368.5,473.5C 365.833,473.5 363.167,473.5 360.5,473.5C 359.539,475.265 359.205,477.265 359.5,479.5C 358.022,479.238 356.689,479.571 355.5,480.5C 354.833,481.833 353.833,482.833 352.5,483.5C 350.247,482.747 348.413,481.414 347,479.5C 345.921,481.394 344.587,481.727 343,480.5C 342.722,481.416 342.222,482.082 341.5,482.5C 341.81,479.287 341.477,476.287 340.5,473.5C 340.5,477.167 340.5,480.833 340.5,484.5C 340.611,485.117 340.944,485.617 341.5,486C 339.992,487.507 338.659,489.173 337.5,491C 336.258,491.311 335.258,490.811 334.5,489.5C 332.5,490.833 330.5,492.167 328.5,493.5C 327.833,492.833 327.167,492.167 326.5,491.5C 324.739,493.68 322.573,495.346 320,496.5C 316.862,495.15 314.695,496.15 313.5,499.5C 270.167,499.5 226.833,499.5 183.5,499.5C 183.5,498.167 183.5,496.833 183.5,495.5C 180.008,495.169 176.674,495.169 173.5,495.5C 171.525,493.863 169.525,492.196 167.5,490.5C 164.893,489.682 162.226,489.182 159.5,489C 156.57,486.995 153.737,484.828 151,482.5C 150.667,480.833 150.333,479.167 150,477.5C 149.444,479.595 148.944,479.762 148.5,478C 148.645,477.228 148.978,476.561 149.5,476C 147.887,475.911 146.72,476.745 146,478.5C 145.383,477.551 145.549,476.718 146.5,476C 145.552,475.517 144.552,475.351 143.5,475.5C 141.743,472.852 140.41,473.186 139.5,476.5C 137.775,477.278 136.109,477.611 134.5,477.5C 130.95,474.785 127.45,472.785 124,471.5C 124.109,472.769 123.942,473.769 123.5,474.5C 122.833,474.167 122.167,473.833 121.5,473.5C 120.435,469.902 118.435,466.902 115.5,464.5C 111.442,465.076 108.109,463.576 105.5,460C 104.167,459.667 102.833,459.333 101.5,459C 95.6621,451.891 88.6621,446.058 80.5,441.5C 78.8613,437.861 76.1947,435.195 72.5,433.5C 71.0013,435.802 69.668,435.469 68.5,432.5C 69.5,431.833 70.5,431.167 71.5,430.5C 67.4722,428.472 64.4722,425.472 62.5,421.5C 58.8053,419.805 56.1387,417.139 54.5,413.5C 51.9906,412.079 49.6572,410.412 47.5,408.5C 47.7093,407.914 48.0426,407.414 48.5,407C 45.2171,402.833 42.2171,398.5 39.5,394C 38.3845,392.765 38.3845,391.598 39.5,390.5C 36.8333,388.5 34.1667,386.5 31.5,384.5C 32.5,383.833 33.5,383.167 34.5,382.5C 34.3333,382.167 34.1667,381.833 34,381.5C 32,380.167 30,378.833 28,377.5C 26.9958,373.835 25.1625,370.668 22.5,368C 23.1667,367.667 23.8333,367.333 24.5,367C 23.6476,364.638 22.1476,362.805 20,361.5C 19.8884,357.377 18.055,354.21 14.5,352C 15.1667,351.667 15.8333,351.333 16.5,351C 15.565,348.619 15.2317,346.119 15.5,343.5C 14.1667,343.5 12.8333,343.5 11.5,343.5C 11.5,340.833 11.5,338.167 11.5,335.5C 10.1667,335.5 8.83333,335.5 7.5,335.5C 7.5,332.833 7.5,330.167 7.5,327.5C 6.5,327.5 5.5,327.5 4.5,327.5C 3.83333,319.5 3.16667,311.5 2.5,303.5C 1.5,303.5 0.5,303.5 -0.5,303.5C -0.5,266.167 -0.5,228.833 -0.5,191.5C 0.5,191.5 1.5,191.5 2.5,191.5C 2.83652,184.807 3.50319,178.14 4.5,171.5C 4.59755,169.381 5.43089,167.714 7,166.5C 7.17855,163.447 7.67855,160.447 8.5,157.5C 11.0094,156.079 13.3428,154.412 15.5,152.5C 15.2907,151.914 14.9574,151.414 14.5,151C 15.2638,148.931 15.7638,146.764 16,144.5C 19.7874,139.592 22.4541,134.259 24,128.5C 27.1478,125.227 28.8145,121.56 29,117.5C 30.3086,115.109 31.3086,115.109 32,117.5C 34.7881,115.588 36.1214,112.921 36,109.5C 40.8936,104.061 45.0602,98.0608 48.5,91.5C 50.2608,89.3202 52.4274,87.6536 55,86.5C 55.3333,84.5 55.6667,82.5 56,80.5C 63.9291,73.9926 71.4291,66.9926 78.5,59.5C 79.2621,58.3717 79.9288,57.2051 80.5,56C 82.5,55.6667 84.5,55.3333 86.5,55C 87.6536,52.4274 89.3202,50.2608 91.5,48.5C 96.1667,45.5 100.833,42.5 105.5,39.5C 106.192,40.0253 106.692,40.6919 107,41.5C 107.167,37.3333 109.333,35.1667 113.5,35C 119.488,29.1742 126.488,25.1742 134.5,23C 139.273,18.2758 144.94,15.7758 151.5,15.5C 151.5,14.1667 151.5,12.8333 151.5,11.5C 154.85,11.665 158.183,11.4983 161.5,11C 165.263,7.09234 169.93,5.59234 175.5,6.5C 175.5,5.5 175.5,4.5 175.5,3.5C 178.167,3.5 180.833,3.5 183.5,3.5C 183.5,2.5 183.5,1.5 183.5,0.5C 186.385,0.8064 189.052,0.473067 191.5,-0.5 Z"/></g>
<g><path style="opacity:1" fill="#e4e4e4" d="M 307.5,-0.5 C 326.167,-0.5 344.833,-0.5 363.5,-0.5C 366.569,1.65366 369.569,3.98699 372.5,6.5C 374.766,7.31416 377.1,7.81416 379.5,8C 391.663,16.2491 403.996,24.2491 416.5,32C 418.076,34.0771 420.076,35.5771 422.5,36.5C 423.584,39.0879 425.251,41.2545 427.5,43C 431.852,44.5228 435.519,47.0228 438.5,50.5C 441.706,55.3965 445.706,59.5632 450.5,63C 449.833,63.3333 449.167,63.6667 448.5,64C 455.382,71.3839 462.715,78.2173 470.5,84.5C 472.211,92.1003 476.211,98.2669 482.5,103C 481.833,103.333 481.167,103.667 480.5,104C 482.076,106.077 484.076,107.577 486.5,108.5C 489.25,116.555 492.25,124.555 495.5,132.5C 496.833,132.5 498.167,132.5 499.5,132.5C 499.5,149.5 499.5,166.5 499.5,183.5C 498.167,183.5 496.833,183.5 495.5,183.5C 495.5,180.833 495.5,178.167 495.5,175.5C 494.5,175.5 493.5,175.5 492.5,175.5C 491.833,170.167 491.167,164.833 490.5,159.5C 488.669,160.052 487.003,160.052 485.5,159.5C 484.494,153.441 483.328,147.441 482,141.5C 477.667,134.833 473.333,128.167 469,121.5C 468.171,115.196 465.171,109.863 460,105.5C 459.667,104.167 459.333,102.833 459,101.5C 455.4,97.5 451.567,93.6667 447.5,90C 446.385,88.7651 446.385,87.5984 447.5,86.5C 442.281,82.366 437.281,78.0327 432.5,73.5C 431.833,72.1667 431.167,70.8333 430.5,69.5C 426.805,67.8054 424.139,65.1387 422.5,61.5C 418.805,59.8054 416.139,57.1387 414.5,53.5C 401.317,43.9894 387.65,35.1561 373.5,27C 370.829,24.3121 367.496,22.8121 363.5,22.5C 361.497,20.8669 360.164,18.8669 359.5,16.5C 353.52,17.4295 348.52,15.7628 344.5,11.5C 343.833,12.1667 343.167,12.8333 342.5,13.5C 339.696,11.8619 337.029,10.0285 334.5,8C 330.789,7.82528 327.122,7.32528 323.5,6.5C 322.171,3.3055 320.505,2.97217 318.5,5.5C 316.5,4.16667 314.5,2.83333 312.5,1.5C 309.916,3.98757 308.25,3.3209 307.5,-0.5 Z"/></g>
<g><path style="opacity:1" fill="#dddddd" d="M 363.5,-0.5 C 374.167,-0.5 384.833,-0.5 395.5,-0.5C 398.569,1.65366 401.569,3.98699 404.5,6.5C 410.546,7.04254 415.212,9.87588 418.5,15C 420.134,15.4935 421.801,15.6602 423.5,15.5C 423.351,16.552 423.517,17.552 424,18.5C 431.41,22.909 437.91,28.409 443.5,35C 445.996,36.0804 448.33,37.4138 450.5,39C 449.833,39.3333 449.167,39.6667 448.5,40C 451.484,42.8258 454.817,45.1591 458.5,47C 457.833,47.3333 457.167,47.6667 456.5,48C 459.484,50.8258 462.817,53.1591 466.5,55C 465.833,55.3333 465.167,55.6667 464.5,56C 466.076,58.0771 468.076,59.5771 470.5,60.5C 471.308,62.4233 471.808,64.4233 472,66.5C 474.436,68.4673 476.936,70.134 479.5,71.5C 479.351,72.552 479.517,73.552 480,74.5C 481.972,75.3052 483.472,76.6385 484.5,78.5C 484.291,79.086 483.957,79.586 483.5,80C 488.927,85.2099 493.094,91.3766 496,98.5C 497.113,99.305 498.279,99.9717 499.5,100.5C 499.5,111.167 499.5,121.833 499.5,132.5C 498.167,132.5 496.833,132.5 495.5,132.5C 492.25,124.555 489.25,116.555 486.5,108.5C 484.076,107.577 482.076,106.077 480.5,104C 481.167,103.667 481.833,103.333 482.5,103C 476.211,98.2669 472.211,92.1003 470.5,84.5C 462.715,78.2173 455.382,71.3839 448.5,64C 449.167,63.6667 449.833,63.3333 450.5,63C 445.706,59.5632 441.706,55.3965 438.5,50.5C 435.519,47.0228 431.852,44.5228 427.5,43C 425.251,41.2545 423.584,39.0879 422.5,36.5C 420.076,35.5771 418.076,34.0771 416.5,32C 403.996,24.2491 391.663,16.2491 379.5,8C 377.1,7.81416 374.766,7.31416 372.5,6.5C 369.569,3.98699 366.569,1.65366 363.5,-0.5 Z"/></g>
<g><path style="opacity:1" fill="#d7d7d7" d="M 395.5,-0.5 C 406.167,-0.5 416.833,-0.5 427.5,-0.5C 434.223,5.04374 441.556,9.87708 449.5,14C 450.634,15.016 450.301,15.6827 448.5,16C 451.484,18.8258 454.817,21.1591 458.5,23C 457.833,23.3333 457.167,23.6667 456.5,24C 459.484,26.8258 462.817,29.1591 466.5,31C 465.833,31.3333 465.167,31.6667 464.5,32C 467.484,34.8258 470.817,37.1591 474.5,39C 473.833,39.3333 473.167,39.6667 472.5,40C 475.484,42.8258 478.817,45.1591 482.5,47C 481.833,47.3333 481.167,47.6667 480.5,48C 483.484,50.8258 486.817,53.1591 490.5,55C 489.552,55.4828 488.552,55.6495 487.5,55.5C 487.351,56.552 487.517,57.552 488,58.5C 490.436,60.4673 492.936,62.134 495.5,63.5C 495.5,65.1667 495.5,66.8333 495.5,68.5C 496.833,68.5 498.167,68.5 499.5,68.5C 499.5,79.1667 499.5,89.8333 499.5,100.5C 498.279,99.9717 497.113,99.305 496,98.5C 493.094,91.3766 488.927,85.2099 483.5,80C 483.957,79.586 484.291,79.086 484.5,78.5C 483.472,76.6385 481.972,75.3052 480,74.5C 479.517,73.552 479.351,72.552 479.5,71.5C 476.936,70.134 474.436,68.4673 472,66.5C 471.808,64.4233 471.308,62.4233 470.5,60.5C 468.076,59.5771 466.076,58.0771 464.5,56C 465.167,55.6667 465.833,55.3333 466.5,55C 462.817,53.1591 459.484,50.8258 456.5,48C 457.167,47.6667 457.833,47.3333 458.5,47C 454.817,45.1591 451.484,42.8258 448.5,40C 449.167,39.6667 449.833,39.3333 450.5,39C 448.33,37.4138 445.996,36.0804 443.5,35C 437.91,28.409 431.41,22.909 424,18.5C 423.517,17.552 423.351,16.552 423.5,15.5C 421.801,15.6602 420.134,15.4935 418.5,15C 415.212,9.87588 410.546,7.04254 404.5,6.5C 401.569,3.98699 398.569,1.65366 395.5,-0.5 Z"/></g>
<g><path style="opacity:1" fill="#d0d0d0" d="M 427.5,-0.5 C 451.5,-0.5 475.5,-0.5 499.5,-0.5C 499.5,22.5 499.5,45.5 499.5,68.5C 498.167,68.5 496.833,68.5 495.5,68.5C 495.5,66.8333 495.5,65.1667 495.5,63.5C 492.936,62.134 490.436,60.4673 488,58.5C 487.517,57.552 487.351,56.552 487.5,55.5C 488.552,55.6495 489.552,55.4828 490.5,55C 486.817,53.1591 483.484,50.8258 480.5,48C 481.167,47.6667 481.833,47.3333 482.5,47C 478.817,45.1591 475.484,42.8258 472.5,40C 473.167,39.6667 473.833,39.3333 474.5,39C 470.817,37.1591 467.484,34.8258 464.5,32C 465.167,31.6667 465.833,31.3333 466.5,31C 462.817,29.1591 459.484,26.8258 456.5,24C 457.167,23.6667 457.833,23.3333 458.5,23C 454.817,21.1591 451.484,18.8258 448.5,16C 450.301,15.6827 450.634,15.016 449.5,14C 441.556,9.87708 434.223,5.04374 427.5,-0.5 Z"/></g>
<g><path style="opacity:1" fill="#f0f0f0" d="M 340.5,473.5 C 339.439,476.972 338.106,477.139 336.5,474C 333.118,473.176 329.784,473.343 326.5,474.5C 327.506,475.396 327.506,476.062 326.5,476.5C 325.185,474.684 323.685,473.017 322,471.5C 321.283,472.044 320.783,472.711 320.5,473.5C 317.805,476.191 314.805,478.525 311.5,480.5C 311.306,482.07 311.306,483.57 311.5,485C 310.167,485.667 308.833,485.667 307.5,485C 309.336,483.149 310.17,480.983 310,478.5C 308.959,480.311 307.793,480.645 306.5,479.5C 304.735,478.539 302.735,478.205 300.5,478.5C 300.5,477.167 300.5,475.833 300.5,474.5C 302.527,474.662 304.527,474.495 306.5,474C 303.854,473.503 301.187,473.336 298.5,473.5C 298.5,477.167 298.5,480.833 298.5,484.5C 294.642,486.964 290.809,486.964 287,484.5C 284.774,487.426 282.44,487.759 280,485.5C 279.261,486.574 278.261,487.241 277,487.5C 267.245,487.539 257.411,487.372 247.5,487C 246.499,484.935 245.832,482.435 245.5,479.5C 246.11,478.609 246.443,477.609 246.5,476.5C 245.542,476.953 244.708,477.619 244,478.5C 238.982,471.867 238.482,472.2 242.5,479.5C 241.811,480.707 241.645,482.041 242,483.5C 239.891,484.035 239.391,485.035 240.5,486.5C 232.152,487.686 223.818,487.519 215.5,486C 214.947,484.122 213.947,482.622 212.5,481.5C 212.946,478.99 212.28,476.99 210.5,475.5C 210.389,474.883 210.056,474.383 209.5,474C 207.19,473.503 204.857,473.337 202.5,473.5C 202.5,477.167 202.5,480.833 202.5,484.5C 201.749,485.573 200.749,485.74 199.5,485C 199.833,484.667 200.167,484.333 200.5,484C 196.833,483.667 193.167,483.333 189.5,483C 190.167,482.667 190.833,482.333 191.5,482C 191.5,480.333 191.5,478.667 191.5,477C 190.906,476.536 190.239,476.369 189.5,476.5C 189.719,475.325 189.386,474.325 188.5,473.5C 187.76,476.866 187.093,480.2 186.5,483.5C 184.856,483.714 183.356,483.38 182,482.5C 181.821,479.447 181.321,476.447 180.5,473.5C 179.571,474.689 179.238,476.022 179.5,477.5C 178.685,478.429 177.852,479.429 177,480.5C 176.5,480 176,479.5 175.5,479C 178.084,477.006 177.918,476.506 175,477.5C 172.667,476.167 170.333,474.833 168,473.5C 166.989,473.892 166.489,474.559 166.5,475.5C 164.925,474.544 163.258,473.877 161.5,473.5C 162.953,472.175 162.619,471.342 160.5,471C 157.518,470.502 154.518,470.335 151.5,470.5C 150.836,468.133 149.503,466.133 147.5,464.5C 144.833,463.833 142.167,463.167 139.5,462.5C 132.735,457.59 125.735,452.757 118.5,448C 116.5,447.667 114.5,447.333 112.5,447C 107.975,441.118 102.309,436.451 95.5,433C 95.273,431.865 94.9396,430.698 94.5,429.5C 84.9125,423.911 76.9125,416.744 70.5,408C 70.9574,407.586 71.2907,407.086 71.5,406.5C 66.1667,401.833 60.8333,397.167 55.5,392.5C 55.7093,391.914 56.0426,391.414 56.5,391C 51.4005,383.547 46.4005,375.88 41.5,368C 42.4506,367.282 42.6172,366.449 42,365.5C 39.8416,364.174 38.0082,362.507 36.5,360.5C 37.5,359.833 38.5,359.167 39.5,358.5C 36.5,356.333 33.5,354.167 30.5,352C 35.1104,351.648 35.6104,350.148 32,347.5C 31.51,346.207 31.3433,344.873 31.5,343.5C 30.1667,343.5 28.8333,343.5 27.5,343.5C 27.1667,338.167 26.8333,332.833 26.5,327.5C 25.5,327.5 24.5,327.5 23.5,327.5C 23.1301,321.415 20.7968,316.082 16.5,311.5C 15.5052,306.208 15.1718,300.875 15.5,295.5C 14.5,295.5 13.5,295.5 12.5,295.5C 12.3317,283.473 11.665,271.473 10.5,259.5C 10.9963,242.207 11.663,224.874 12.5,207.5C 13.5,207.5 14.5,207.5 15.5,207.5C 14.2312,198.661 16.2312,190.827 21.5,184C 20.5562,181.281 20.2229,178.448 20.5,175.5C 21.5,175.5 22.5,175.5 23.5,175.5C 23.1866,172.753 23.52,170.086 24.5,167.5C 26.5255,165.295 28.1922,162.795 29.5,160C 32.6533,160.682 33.3199,159.349 31.5,156C 31.938,154.08 32.6047,152.246 33.5,150.5C 34.5272,151.791 35.5272,151.791 36.5,150.5C 38.3837,164.436 39.717,178.436 40.5,192.5C 39.2921,191.766 37.9587,191.433 36.5,191.5C 36.6641,188.813 36.4974,186.146 36,183.5C 35.5006,188.823 35.334,194.156 35.5,199.5C 34.1667,199.5 32.8333,199.5 31.5,199.5C 31.5,207.5 31.5,215.5 31.5,223.5C 30.5,223.5 29.5,223.5 28.5,223.5C 27.8269,234.192 27.8269,244.859 28.5,255.5C 29.5,255.5 30.5,255.5 31.5,255.5C 31.5,258.167 31.5,260.833 31.5,263.5C 30.5,263.5 29.5,263.5 28.5,263.5C 28.5,268.833 28.5,274.167 28.5,279.5C 29.5,279.5 30.5,279.5 31.5,279.5C 31.5,284.833 31.5,290.167 31.5,295.5C 32.8333,295.5 34.1667,295.5 35.5,295.5C 35.8333,300.833 36.1667,306.167 36.5,311.5C 37.5,311.5 38.5,311.5 39.5,311.5C 39.5,316.833 39.5,322.167 39.5,327.5C 40.8333,327.5 42.1667,327.5 43.5,327.5C 43.5,330.167 43.5,332.833 43.5,335.5C 44.8333,335.5 46.1667,335.5 47.5,335.5C 47.1796,338.898 47.513,342.232 48.5,345.5C 51.0094,346.921 53.3428,348.588 55.5,350.5C 55.2907,351.086 54.9574,351.586 54.5,352C 55.6536,354.573 57.3202,356.739 59.5,358.5C 58.1667,359.167 56.8333,359.833 55.5,360.5C 58.1667,362.5 60.8333,364.5 63.5,366.5C 63.2907,367.086 62.9574,367.586 62.5,368C 65.1625,370.668 66.9958,373.835 68,377.5C 70.3333,378.833 72.6667,380.167 75,381.5C 76.0042,385.165 77.8375,388.332 80.5,391C 80.0426,391.414 79.7093,391.914 79.5,392.5C 82.5,394.667 85.5,396.833 88.5,399C 86.6992,399.317 86.3659,399.984 87.5,401C 90.672,402.752 93.672,404.752 96.5,407C 94.6992,407.317 94.3659,407.984 95.5,409C 98.672,410.752 101.672,412.752 104.5,415C 102.699,415.317 102.366,415.984 103.5,417C 118.243,426.744 132.91,436.577 147.5,446.5C 151.879,448.743 156.545,449.91 161.5,450C 165.538,453.012 169.538,456.012 173.5,459C 176.817,459.498 180.15,459.665 183.5,459.5C 183.5,460.5 183.5,461.5 183.5,462.5C 196.753,464.813 210.086,466.48 223.5,467.5C 223.5,468.5 223.5,469.5 223.5,470.5C 239.5,470.5 255.5,470.5 271.5,470.5C 271.5,469.5 271.5,468.5 271.5,467.5C 282.24,467.716 292.906,467.049 303.5,465.5C 303.5,464.5 303.5,463.5 303.5,462.5C 306.167,462.5 308.833,462.5 311.5,462.5C 311.5,461.5 311.5,460.5 311.5,459.5C 316.833,458.833 322.167,458.167 327.5,457.5C 327.5,456.5 327.5,455.5 327.5,454.5C 330.167,454.5 332.833,454.5 335.5,454.5C 335.5,453.5 335.5,452.5 335.5,451.5C 338.167,451.5 340.833,451.5 343.5,451.5C 343.966,449.799 343.966,448.299 343.5,447C 346.167,446.667 348.833,446.333 351.5,446C 354.167,444.333 356.833,442.667 359.5,441C 360.833,440.333 360.833,439.667 359.5,439C 362.146,438.503 364.813,438.336 367.5,438.5C 369.086,435.077 371.586,432.411 375,430.5C 375.483,429.552 375.649,428.552 375.5,427.5C 378.167,427.5 380.833,427.5 383.5,427.5C 383.325,424.671 384.658,423.004 387.5,422.5C 389.68,420.739 391.346,418.573 392.5,416C 394.75,415.389 396.417,414.056 397.5,412C 401.667,411.833 403.833,409.667 404,405.5C 405.491,403.996 407.324,403.163 409.5,403C 410.833,400.667 412.167,398.333 413.5,396C 417.667,395.833 419.833,393.667 420,389.5C 422.148,388.195 423.648,386.362 424.5,384C 423.833,383.667 423.167,383.333 422.5,383C 425.833,380.667 429.167,378.333 432.5,376C 430.579,374.969 430.579,373.469 432.5,371.5C 434.133,369.497 436.133,368.164 438.5,367.5C 438.617,365.516 437.95,363.85 436.5,362.5C 437.59,361.391 437.59,360.391 436.5,359.5C 435.571,360.689 435.238,362.022 435.5,363.5C 434.325,363.281 433.325,363.614 432.5,364.5C 433.326,365.451 433.492,366.451 433,367.5C 432.333,366.167 431.667,366.167 431,367.5C 430.019,364.345 428.685,364.012 427,366.5C 426.667,365.833 426.333,365.167 426,364.5C 425.581,365.672 424.915,366.672 424,367.5C 422.057,365.849 420.557,363.849 419.5,361.5C 420.325,360.614 421.325,360.281 422.5,360.5C 424.836,362.391 427.502,362.891 430.5,362C 431.406,360.301 431.739,358.467 431.5,356.5C 432.309,358.292 432.809,360.292 433,362.5C 434.188,361.437 434.688,360.103 434.5,358.5C 444.911,357.932 449.078,352.598 447,342.5C 446.667,342.833 446.333,343.167 446,343.5C 444.098,342.794 442.265,341.794 440.5,340.5C 467.617,285.575 470.783,229.241 450,171.5C 418.029,97.2325 361.863,54.3991 281.5,43C 244.994,39.6036 209.994,45.2702 176.5,60C 166.674,65.0226 157.007,70.1893 147.5,75.5C 147.953,74.5416 148.619,73.7083 149.5,73C 160,66.9176 170.334,60.5842 180.5,54C 186.375,49.6256 191.375,44.4589 195.5,38.5C 197.103,39.6772 198.436,39.5106 199.5,38C 199.167,37.6667 198.833,37.3333 198.5,37C 200.09,35.9542 201.59,34.7875 203,33.5C 204.216,29.4003 205.716,25.4003 207.5,21.5C 206.555,18.7084 206.555,16.2084 207.5,14C 218.149,12.8352 228.815,12.0019 239.5,11.5C 239.5,10.5 239.5,9.5 239.5,8.5C 242.167,8.5 244.833,8.5 247.5,8.5C 247.5,9.5 247.5,10.5 247.5,11.5C 250.167,11.5 252.833,11.5 255.5,11.5C 255.5,10.5 255.5,9.5 255.5,8.5C 258.167,8.5 260.833,8.5 263.5,8.5C 263.5,9.5 263.5,10.5 263.5,11.5C 279.575,12.5095 295.575,14.1762 311.5,16.5C 311.5,17.5 311.5,18.5 311.5,19.5C 320.188,19.5786 327.855,22.2452 334.5,27.5C 335.167,26.8333 335.833,26.1667 336.5,25.5C 340.433,29.2705 345.099,31.4372 350.5,32C 355.382,36.4411 361.049,39.2745 367.5,40.5C 378.167,47.8333 388.833,55.1667 399.5,62.5C 398.359,63.4255 398.359,64.2588 399.5,65C 406.015,68.4585 411.515,72.9585 416,78.5C 421.046,82.6753 425.879,87.0087 430.5,91.5C 431.958,93.1385 432.292,94.8051 431.5,96.5C 434.167,98.5 436.833,100.5 439.5,102.5C 439.291,103.086 438.957,103.586 438.5,104C 441.783,108.167 444.783,112.5 447.5,117C 448.615,118.235 448.615,119.402 447.5,120.5C 450.167,122.5 452.833,124.5 455.5,126.5C 454.5,127.167 453.5,127.833 452.5,128.5C 454.306,130.608 456.473,132.274 459,133.5C 460.004,137.165 461.838,140.332 464.5,143C 463.833,143.333 463.167,143.667 462.5,144C 464.17,146.595 466.004,149.095 468,151.5C 468.497,154.146 468.664,156.813 468.5,159.5C 470.331,158.948 471.997,158.948 473.5,159.5C 474.823,164.752 475.49,170.085 475.5,175.5C 476.833,175.5 478.167,175.5 479.5,175.5C 479.5,180.833 479.5,186.167 479.5,191.5C 480.5,191.5 481.5,191.5 482.5,191.5C 482.777,194.448 482.444,197.281 481.5,200C 482.833,202.333 484.167,204.667 485.5,207C 484.527,212.407 484.193,217.907 484.5,223.5C 485.5,223.5 486.5,223.5 487.5,223.5C 487.5,244.833 487.5,266.167 487.5,287.5C 486.5,287.5 485.5,287.5 484.5,287.5C 484.167,292.833 483.833,298.167 483.5,303.5C 482.167,303.5 480.833,303.5 479.5,303.5C 479.5,308.833 479.5,314.167 479.5,319.5C 478.5,319.5 477.5,319.5 476.5,319.5C 475.833,324.833 475.167,330.167 474.5,335.5C 473.5,335.5 472.5,335.5 471.5,335.5C 471.657,336.873 471.49,338.207 471,339.5C 467.903,342.86 466.736,346.86 467.5,351.5C 466.178,351.33 465.011,351.663 464,352.5C 463.764,354.764 463.264,356.931 462.5,359C 462.957,359.414 463.291,359.914 463.5,360.5C 460.833,362.5 458.167,364.5 455.5,366.5C 456.615,367.598 456.615,368.765 455.5,370C 452.783,374.5 449.783,378.833 446.5,383C 447.167,383.333 447.833,383.667 448.5,384C 445.5,386.167 442.5,388.333 439.5,390.5C 440.615,391.598 440.615,392.765 439.5,394C 436.737,398.2 433.904,402.366 431,406.5C 429.795,407.071 428.628,407.738 427.5,408.5C 420.007,415.571 413.007,423.071 406.5,431C 390.51,441.663 374.51,452.33 358.5,463C 353.245,463.793 348.578,465.96 344.5,469.5C 343.742,468.189 342.742,467.689 341.5,468C 338.812,469.977 338.479,471.81 340.5,473.5 Z"/></g>
<g><path style="opacity:1" fill="#fcfcfc" d="M 374.5,406.5 C 374.5,406.833 374.5,407.167 374.5,407.5C 373.71,408.609 373.21,409.942 373,411.5C 371.834,406.607 370,406.44 367.5,411C 364.854,411.497 362.187,411.664 359.5,411.5C 359.5,412.5 359.5,413.5 359.5,414.5C 356.813,414.336 354.146,414.503 351.5,415C 354.5,415.333 357.5,415.667 360.5,416C 353.934,416.77 348.267,418.436 343.5,421C 344.737,421.232 345.737,421.732 346.5,422.5C 346.5,423.167 346.167,423.5 345.5,423.5C 342.221,422.508 338.888,422.341 335.5,423C 339.483,423.23 340.149,424.563 337.5,427C 334.183,427.498 330.85,427.665 327.5,427.5C 327.5,428.5 327.5,429.5 327.5,430.5C 324.813,430.336 322.146,430.503 319.5,431C 320.451,431.718 320.617,432.551 320,433.5C 318.406,434.716 316.906,436.049 315.5,437.5C 314.158,436.098 313.324,436.431 313,438.5C 312.626,437.584 312.126,436.75 311.5,436C 308.854,435.503 306.187,435.336 303.5,435.5C 303.5,436.5 303.5,437.5 303.5,438.5C 299.15,438.254 295.15,439.254 291.5,441.5C 289.945,441.278 288.611,440.611 287.5,439.5C 286.707,440.355 287.04,441.189 288.5,442C 283.242,442.029 278.075,441.195 273,439.5C 271.5,440 270,440.5 268.5,441C 270.631,441.543 272.631,442.376 274.5,443.5C 271.679,444.971 269.179,444.637 267,442.5C 264.224,443.685 261.39,443.685 258.5,442.5C 257.09,442.868 256.09,443.701 255.5,445C 252.854,445.497 250.187,445.664 247.5,445.5C 176.499,438.948 122.665,405.282 86,344.5C 65.7763,307.716 57.443,268.383 61,226.5C 62.5862,224.33 63.9196,221.996 65,219.5C 78,207.833 90.3333,195.5 102,182.5C 110.338,171.149 113.671,158.483 112,144.5C 111.282,143.549 110.449,143.383 109.5,144C 107.648,148.871 105.148,153.371 102,157.5C 92.3333,167.833 82.6667,178.167 73,188.5C 70.2677,192.241 67.9343,196.241 66,200.5C 68.9895,184.035 74.4895,168.369 82.5,153.5C 83.5,152.667 84.5,151.833 85.5,151C 100.435,144.865 115.102,138.198 129.5,131C 138.948,123.721 147.614,115.554 155.5,106.5C 153.579,105.359 151.579,105.192 149.5,106C 129.75,111.624 111.917,120.79 96,133.5C 101.178,123.946 107.678,115.113 115.5,107C 120.534,104.211 125.868,102.211 131.5,101C 148.795,99.7542 166.128,99.0875 183.5,99C 199.278,97.6384 212.445,91.1384 223,79.5C 223.749,78.365 223.583,77.365 222.5,76.5C 216.828,80.669 210.495,83.169 203.5,84C 187.167,84.3333 170.833,84.6667 154.5,85C 149.061,85.5291 143.727,86.1957 138.5,87C 147.936,79.0628 158.269,72.5628 169.5,67.5C 172.833,67.5 176.167,67.5 179.5,67.5C 179.238,66.0222 179.571,64.6888 180.5,63.5C 180.327,65.5464 181.16,67.5464 183,69.5C 182.695,67.5568 182.695,65.5568 183,63.5C 187.928,64.3516 192.761,64.3516 197.5,63.5C 198.167,63.3333 198.833,63.1667 199.5,63C 195.5,62.3333 195.5,61.6667 199.5,61C 198.5,60.6667 197.5,60.3333 196.5,60C 197.849,59.2276 198.682,58.0609 199,56.5C 199.483,57.448 199.649,58.448 199.5,59.5C 202.167,59.5 204.833,59.5 207.5,59.5C 207.5,58.5 207.5,57.5 207.5,56.5C 215.507,56.6664 223.507,56.4997 231.5,56C 228.833,55.3333 228.833,54.6667 231.5,54C 240.832,53.1669 250.165,52.3336 259.5,51.5C 269.163,52.3918 278.83,53.2251 288.5,54C 285.7,55.2319 282.7,55.8985 279.5,56C 284.823,56.4994 290.156,56.666 295.5,56.5C 295.5,57.5 295.5,58.5 295.5,59.5C 304.39,59.1944 313.057,60.361 321.5,63C 318.167,63.3333 314.833,63.6667 311.5,64C 314.146,64.4974 316.813,64.6641 319.5,64.5C 319.5,65.5 319.5,66.5 319.5,67.5C 322.85,67.335 326.183,67.5017 329.5,68C 332.149,70.4366 331.483,71.77 327.5,72C 330.146,72.4974 332.813,72.6641 335.5,72.5C 335.5,73.5 335.5,74.5 335.5,75.5C 338.85,75.335 342.183,75.5017 345.5,76C 348.149,78.4366 347.483,79.77 343.5,80C 346.146,80.4974 348.813,80.6641 351.5,80.5C 351.5,81.5 351.5,82.5 351.5,83.5C 357.234,83.9956 362.901,84.9956 368.5,86.5C 366.833,87.1667 365.167,87.8333 363.5,88.5C 365.633,90.6676 368.133,92.3343 371,93.5C 371.167,93.8333 371.333,94.1667 371.5,94.5C 370.271,95.2811 368.938,95.7811 367.5,96C 370.167,96.3333 372.833,96.6667 375.5,97C 379.183,99.8718 383.183,102.038 387.5,103.5C 387.5,106.167 387.5,108.833 387.5,111.5C 387.31,113.014 389.977,113.014 395.5,111.5C 395.5,114.167 395.5,116.833 395.5,119.5C 399.949,120.925 403.949,123.258 407.5,126.5C 402.575,127.429 402.242,129.096 406.5,131.5C 407.429,132.689 407.762,134.022 407.5,135.5C 408.978,135.238 410.311,135.571 411.5,136.5C 412.167,137.833 413.167,138.833 414.5,139.5C 415.429,140.689 415.762,142.022 415.5,143.5C 416.833,143.5 418.167,143.5 419.5,143.5C 419.335,146.85 419.502,150.183 420,153.5C 422.46,154.755 423.627,156.755 423.5,159.5C 424.833,159.5 426.167,159.5 427.5,159.5C 427.5,162.167 427.5,164.833 427.5,167.5C 428.833,167.5 430.167,167.5 431.5,167.5C 431.5,170.167 431.5,172.833 431.5,175.5C 432.833,175.5 434.167,175.5 435.5,175.5C 435.5,180.833 435.5,186.167 435.5,191.5C 436.833,191.5 438.167,191.5 439.5,191.5C 439.5,194.167 439.5,196.833 439.5,199.5C 440.833,199.5 442.167,199.5 443.5,199.5C 443.5,210.167 443.5,220.833 443.5,231.5C 444.833,231.5 446.167,231.5 447.5,231.5C 447.5,244.833 447.5,258.167 447.5,271.5C 446.167,271.5 444.833,271.5 443.5,271.5C 443.5,279.5 443.5,287.5 443.5,295.5C 442.167,295.5 440.833,295.5 439.5,295.5C 439.5,300.833 439.5,306.167 439.5,311.5C 438.167,311.5 436.833,311.5 435.5,311.5C 435.5,314.167 435.5,316.833 435.5,319.5C 434.167,319.5 432.833,319.5 431.5,319.5C 431.5,322.167 431.5,324.833 431.5,327.5C 430.167,327.5 428.833,327.5 427.5,327.5C 427.665,330.85 427.498,334.183 427,337.5C 426.311,338.357 425.478,339.023 424.5,339.5C 423.673,343.459 423.173,347.459 423,351.5C 421.075,355.169 419.408,355.169 418,351.5C 417.365,352.966 416.531,354.3 415.5,355.5C 416.742,358.93 415.409,360.263 411.5,359.5C 411.5,362.167 411.5,364.833 411.5,367.5C 408.938,368.371 406.272,368.371 403.5,367.5C 403.223,370.448 403.556,373.281 404.5,376C 402.523,377.541 400.523,378.041 398.5,377.5C 395.991,378.921 393.657,380.588 391.5,382.5C 396.425,383.429 396.758,385.096 392.5,387.5C 391.571,388.689 391.238,390.022 391.5,391.5C 388.833,391.5 386.167,391.5 383.5,391.5C 384.006,395.007 383.34,398.174 381.5,401C 378.891,400.232 376.391,399.732 374,399.5C 373.383,400.449 373.549,401.282 374.5,402C 373.643,402.689 372.977,403.522 372.5,404.5C 372.846,405.696 373.346,405.696 374,404.5C 374.464,405.094 374.631,405.761 374.5,406.5 Z"/></g>
<g><path style="opacity:1" fill="#0f0f0f" d="M 195.5,38.5 C 191.375,44.4589 186.375,49.6256 180.5,54C 170.334,60.5842 160,66.9176 149.5,73C 148.619,73.7083 147.953,74.5416 147.5,75.5C 157.007,70.1893 166.674,65.0226 176.5,60C 209.994,45.2702 244.994,39.6036 281.5,43C 361.863,54.3991 418.029,97.2325 450,171.5C 470.783,229.241 467.617,285.575 440.5,340.5C 439.883,342.229 438.883,343.729 437.5,345C 436.517,345.591 435.85,345.257 435.5,344C 462.402,292.607 467.569,239.107 451,183.5C 428.348,118.848 384.515,75.6818 319.5,54C 275.712,41.4855 232.379,42.8189 189.5,58C 182.516,60.7055 175.849,63.8722 169.5,67.5C 158.269,72.5628 147.936,79.0628 138.5,87C 143.727,86.1957 149.061,85.5291 154.5,85C 170.833,84.6667 187.167,84.3333 203.5,84C 210.495,83.169 216.828,80.669 222.5,76.5C 223.583,77.365 223.749,78.365 223,79.5C 212.445,91.1384 199.278,97.6384 183.5,99C 166.128,99.0875 148.795,99.7542 131.5,101C 125.868,102.211 120.534,104.211 115.5,107C 107.678,115.113 101.178,123.946 96,133.5C 111.917,120.79 129.75,111.624 149.5,106C 151.579,105.192 153.579,105.359 155.5,106.5C 147.614,115.554 138.948,123.721 129.5,131C 115.102,138.198 100.435,144.865 85.5,151C 84.5,151.833 83.5,152.667 82.5,153.5C 74.4895,168.369 68.9895,184.035 66,200.5C 67.9343,196.241 70.2677,192.241 73,188.5C 82.6667,178.167 92.3333,167.833 102,157.5C 105.148,153.371 107.648,148.871 109.5,144C 110.449,143.383 111.282,143.549 112,144.5C 113.671,158.483 110.338,171.149 102,182.5C 90.3333,195.5 78,207.833 65,219.5C 63.9196,221.996 62.5862,224.33 61,226.5C 57.443,268.383 65.7763,307.716 86,344.5C 122.665,405.282 176.499,438.948 247.5,445.5C 275.469,447.418 302.803,443.585 329.5,434C 331.259,433.202 332.926,433.369 334.5,434.5C 273.183,458.25 213.85,453.75 156.5,421C 89.1886,377.568 56.022,315.401 57,234.5C 47.8682,221.94 42.3682,207.94 40.5,192.5C 39.717,178.436 38.3837,164.436 36.5,150.5C 36.2767,148.658 35.9434,146.825 35.5,145C 35.8333,144.167 36.1667,143.333 36.5,142.5C 52.319,158.484 60.819,177.817 62,200.5C 62.5788,198.351 63.0788,196.185 63.5,194C 59.3793,159.583 64.0459,126.417 77.5,94.5C 78.325,93.6143 79.325,93.281 80.5,93.5C 80.8392,112.573 80.3392,131.573 79,150.5C 81.3333,147.5 83.6667,144.5 86,141.5C 85.0477,134.484 85.3811,127.484 87,120.5C 93.9422,104.949 100.609,89.2824 107,73.5C 109.202,62.5884 110.702,51.5884 111.5,40.5C 112.5,40.5 113.5,40.5 114.5,40.5C 117.504,56.03 118.671,71.6966 118,87.5C 116.494,93.6665 114.827,99.6665 113,105.5C 117.333,101.167 121.667,96.8333 126,92.5C 127.787,83.7941 131.12,75.7941 136,68.5C 152.832,53.0038 171.332,39.8372 191.5,29C 197.065,24.6861 200.732,19.1861 202.5,12.5C 203.5,12.5 204.5,12.5 205.5,12.5C 204.714,22.1981 201.381,30.8648 195.5,38.5 Z"/></g>
<g><path style="opacity:1" fill="#f7f7f7" d="M 203.5,86.5 C 205.527,86.3379 207.527,86.5045 209.5,87C 203.165,91.3369 196.165,94.0036 188.5,95C 171.201,96.2291 153.867,96.8957 136.5,97C 121.192,101.339 120.525,99.6724 134.5,92C 138.42,90.6866 142.42,89.6866 146.5,89C 165.644,87.9588 184.644,87.1255 203.5,86.5 Z"/></g>
<g><path style="opacity:1" fill="#8f8f8f" d="M 143.5,78.5 C 142.746,80.4459 141.412,81.2793 139.5,81C 140.471,79.5187 141.804,78.6854 143.5,78.5 Z"/></g>
<g><path style="opacity:1" fill="#bbbbbb" d="M 147.5,75.5 C 146.738,77.2624 145.404,78.2624 143.5,78.5C 144.262,76.7376 145.596,75.7376 147.5,75.5 Z"/></g>
<g><path style="opacity:1" fill="#eeeeee" d="M 197.5,26.5 C 198.043,26.56 198.376,26.8933 198.5,27.5C 194.21,36.2982 188.21,43.7982 180.5,50C 168.768,58.0613 156.768,65.728 144.5,73C 139.667,76.5 135.5,80.6667 132,85.5C 133.157,76.6997 137.323,69.5331 144.5,64C 159.812,52.341 175.812,41.6743 192.5,32C 194.373,30.2962 196.04,28.4628 197.5,26.5 Z"/></g>
<g><path style="opacity:1" fill="#efefef" d="M 112.5,56.5 C 118.307,76.3526 115.807,95.3526 105,113.5C 99.6667,120.833 94.3333,128.167 89,135.5C 88.3333,131.833 88.3333,128.167 89,124.5C 94.7828,109.6 101.116,94.9338 108,80.5C 110.686,72.7155 112.186,64.7155 112.5,56.5 Z"/></g>
<g><path style="opacity:1" fill="#f4f4f4" d="M 146.5,109.5 C 147.239,109.369 147.906,109.536 148.5,110C 141.72,117.786 134.053,124.453 125.5,130C 112.731,136.228 99.7308,141.562 86.5,146C 103.863,129.486 123.863,117.319 146.5,109.5 Z"/></g>
<g><path style="opacity:1" fill="#eeeeee" d="M 76.5,104.5 C 79.7073,131.268 76.2073,157.268 66,182.5C 63.9604,155.74 67.4604,129.74 76.5,104.5 Z"/></g>
<g><path style="opacity:1" fill="#f4f4f4" d="M 108.5,151.5 C 109.436,161.226 106.936,170.226 101,178.5C 98.6667,181.5 96.3333,184.5 94,187.5C 84.3333,196.5 74.6667,205.5 65,214.5C 65.6659,206.819 68.3326,199.819 73,193.5C 82.4531,182.893 92.1198,172.559 102,162.5C 104.694,159.108 106.86,155.441 108.5,151.5 Z"/></g>
<g><path style="opacity:1" fill="#020202" d="M 260.5,162.5 C 295.207,158.604 321.374,171.604 339,201.5C 346.242,213.985 352.409,226.985 357.5,240.5C 357.167,240.833 356.833,241.167 356.5,241.5C 348.244,216.47 334.577,194.97 315.5,177C 304.905,168.849 292.905,164.683 279.5,164.5C 279.5,190.167 279.5,215.833 279.5,241.5C 273.167,241.5 266.833,241.5 260.5,241.5C 260.5,215.167 260.5,188.833 260.5,162.5 Z"/></g>
<g><path style="opacity:1" fill="#040404" d="M 373.5,162.5 C 380.167,162.5 386.833,162.5 393.5,162.5C 393.5,188.833 393.5,215.167 393.5,241.5C 386.833,241.5 380.167,241.5 373.5,241.5C 373.5,215.167 373.5,188.833 373.5,162.5 Z"/></g>
<g><path style="opacity:1" fill="#f2f2f2" d="M 39.5,150.5 C 52.348,165.702 58.6813,183.369 58.5,203.5C 58.2371,212.18 57.7371,220.847 57,229.5C 51.0729,220.644 47.0729,210.977 45,200.5C 42.8357,183.854 41.0023,167.187 39.5,150.5 Z"/></g>
<g><path style="opacity:1" fill="#050505" d="M 169.5,154.5 C 193.467,151.724 215.467,156.89 235.5,170C 239.036,173.201 242.203,176.701 245,180.5C 245.667,190.167 245.667,199.833 245,209.5C 235.273,189.773 220.773,174.607 201.5,164C 182.281,155.081 163.281,155.414 144.5,165C 128,175.177 125.167,188.343 136,204.5C 149.991,220.475 166.824,232.641 186.5,241C 171.167,241.667 155.833,241.667 140.5,241C 118.481,221.065 115.315,198.565 131,173.5C 141.837,162.998 154.67,156.665 169.5,154.5 Z"/></g>
<g><path style="opacity:1" fill="#f5f5f5" d="M 440.5,340.5 C 442.265,341.794 444.098,342.794 446,343.5C 446.333,343.167 446.667,342.833 447,342.5C 449.078,352.598 444.911,357.932 434.5,358.5C 434.688,360.103 434.188,361.437 433,362.5C 432.809,360.292 432.309,358.292 431.5,356.5C 431.389,355.883 431.056,355.383 430.5,355C 425.171,353.178 422.504,355.011 422.5,360.5C 421.325,360.281 420.325,360.614 419.5,361.5C 420.557,363.849 422.057,365.849 424,367.5C 424.915,366.672 425.581,365.672 426,364.5C 426.333,365.167 426.667,365.833 427,366.5C 428.685,364.012 430.019,364.345 431,367.5C 431.667,366.167 432.333,366.167 433,367.5C 433.492,366.451 433.326,365.451 432.5,364.5C 433.325,363.614 434.325,363.281 435.5,363.5C 435.238,362.022 435.571,360.689 436.5,359.5C 437.59,360.391 437.59,361.391 436.5,362.5C 437.95,363.85 438.617,365.516 438.5,367.5C 436.133,368.164 434.133,369.497 432.5,371.5C 430.579,373.469 430.579,374.969 432.5,376C 429.167,378.333 425.833,380.667 422.5,383C 423.167,383.333 423.833,383.667 424.5,384C 423.648,386.362 422.148,388.195 420,389.5C 419.833,393.667 417.667,395.833 413.5,396C 412.167,398.333 410.833,400.667 409.5,403C 407.324,403.163 405.491,403.996 404,405.5C 403.833,409.667 401.667,411.833 397.5,412C 396.417,414.056 394.75,415.389 392.5,416C 391.346,418.573 389.68,420.739 387.5,422.5C 384.658,423.004 383.325,424.671 383.5,427.5C 380.833,427.5 378.167,427.5 375.5,427.5C 375.649,428.552 375.483,429.552 375,430.5C 371.586,432.411 369.086,435.077 367.5,438.5C 364.813,438.336 362.146,438.503 359.5,439C 360.833,439.667 360.833,440.333 359.5,441C 356.833,442.667 354.167,444.333 351.5,446C 348.833,446.333 346.167,446.667 343.5,447C 343.966,448.299 343.966,449.799 343.5,451.5C 340.833,451.5 338.167,451.5 335.5,451.5C 335.5,452.5 335.5,453.5 335.5,454.5C 332.833,454.5 330.167,454.5 327.5,454.5C 327.5,455.5 327.5,456.5 327.5,457.5C 322.167,458.167 316.833,458.833 311.5,459.5C 311.5,460.5 311.5,461.5 311.5,462.5C 308.833,462.5 306.167,462.5 303.5,462.5C 303.5,463.5 303.5,464.5 303.5,465.5C 292.906,467.049 282.24,467.716 271.5,467.5C 271.5,468.5 271.5,469.5 271.5,470.5C 255.5,470.5 239.5,470.5 223.5,470.5C 223.5,469.5 223.5,468.5 223.5,467.5C 210.086,466.48 196.753,464.813 183.5,462.5C 183.5,461.5 183.5,460.5 183.5,459.5C 180.15,459.665 176.817,459.498 173.5,459C 169.538,456.012 165.538,453.012 161.5,450C 156.545,449.91 151.879,448.743 147.5,446.5C 132.91,436.577 118.243,426.744 103.5,417C 102.366,415.984 102.699,415.317 104.5,415C 101.672,412.752 98.672,410.752 95.5,409C 94.3659,407.984 94.6992,407.317 96.5,407C 93.672,404.752 90.672,402.752 87.5,401C 86.3659,399.984 86.6992,399.317 88.5,399C 85.5,396.833 82.5,394.667 79.5,392.5C 79.7093,391.914 80.0426,391.414 80.5,391C 77.8375,388.332 76.0042,385.165 75,381.5C 72.6667,380.167 70.3333,378.833 68,377.5C 66.9958,373.835 65.1625,370.668 62.5,368C 62.9574,367.586 63.2907,367.086 63.5,366.5C 60.8333,364.5 58.1667,362.5 55.5,360.5C 56.8333,359.833 58.1667,359.167 59.5,358.5C 57.3202,356.739 55.6536,354.573 54.5,352C 54.9574,351.586 55.2907,351.086 55.5,350.5C 53.3428,348.588 51.0094,346.921 48.5,345.5C 47.513,342.232 47.1796,338.898 47.5,335.5C 46.1667,335.5 44.8333,335.5 43.5,335.5C 43.5,332.833 43.5,330.167 43.5,327.5C 42.1667,327.5 40.8333,327.5 39.5,327.5C 39.5,322.167 39.5,316.833 39.5,311.5C 38.5,311.5 37.5,311.5 36.5,311.5C 36.1667,306.167 35.8333,300.833 35.5,295.5C 34.1667,295.5 32.8333,295.5 31.5,295.5C 31.5,290.167 31.5,284.833 31.5,279.5C 30.5,279.5 29.5,279.5 28.5,279.5C 28.5,274.167 28.5,268.833 28.5,263.5C 29.5,263.5 30.5,263.5 31.5,263.5C 31.5,260.833 31.5,258.167 31.5,255.5C 30.5,255.5 29.5,255.5 28.5,255.5C 27.8269,244.859 27.8269,234.192 28.5,223.5C 29.5,223.5 30.5,223.5 31.5,223.5C 31.5,215.5 31.5,207.5 31.5,199.5C 32.8333,199.5 34.1667,199.5 35.5,199.5C 35.334,194.156 35.5006,188.823 36,183.5C 36.4974,186.146 36.6641,188.813 36.5,191.5C 37.9587,191.433 39.2921,191.766 40.5,192.5C 42.3682,207.94 47.8682,221.94 57,234.5C 56.022,315.401 89.1886,377.568 156.5,421C 213.85,453.75 273.183,458.25 334.5,434.5C 332.926,433.369 331.259,433.202 329.5,434C 302.803,443.585 275.469,447.418 247.5,445.5C 250.187,445.664 252.854,445.497 255.5,445C 256.09,443.701 257.09,442.868 258.5,442.5C 261.39,443.685 264.224,443.685 267,442.5C 269.179,444.637 271.679,444.971 274.5,443.5C 272.631,442.376 270.631,441.543 268.5,441C 270,440.5 271.5,440 273,439.5C 278.075,441.195 283.242,442.029 288.5,442C 287.04,441.189 286.707,440.355 287.5,439.5C 288.611,440.611 289.945,441.278 291.5,441.5C 295.15,439.254 299.15,438.254 303.5,438.5C 303.5,437.5 303.5,436.5 303.5,435.5C 306.187,435.336 308.854,435.503 311.5,436C 312.126,436.75 312.626,437.584 313,438.5C 313.324,436.431 314.158,436.098 315.5,437.5C 316.906,436.049 318.406,434.716 320,433.5C 320.617,432.551 320.451,431.718 319.5,431C 322.146,430.503 324.813,430.336 327.5,430.5C 327.5,429.5 327.5,428.5 327.5,427.5C 330.85,427.665 334.183,427.498 337.5,427C 340.149,424.563 339.483,423.23 335.5,423C 338.888,422.341 342.221,422.508 345.5,423.5C 343.119,428.901 344.785,431.401 350.5,431C 355.246,425.532 353.913,422.699 346.5,422.5C 345.737,421.732 344.737,421.232 343.5,421C 348.267,418.436 353.934,416.77 360.5,416C 357.5,415.667 354.5,415.333 351.5,415C 354.146,414.503 356.813,414.336 359.5,414.5C 359.5,413.5 359.5,412.5 359.5,411.5C 362.187,411.664 364.854,411.497 367.5,411C 370,406.44 371.834,406.607 373,411.5C 373.21,409.942 373.71,408.609 374.5,407.5C 374.369,412.708 376.702,414.375 381.5,412.5C 384.08,410.044 384.08,407.544 381.5,405C 378.829,404.167 376.496,404.667 374.5,406.5C 374.631,405.761 374.464,405.094 374,404.5C 373.346,405.696 372.846,405.696 372.5,404.5C 372.977,403.522 373.643,402.689 374.5,402C 373.549,401.282 373.383,400.449 374,399.5C 376.391,399.732 378.891,400.232 381.5,401C 383.34,398.174 384.006,395.007 383.5,391.5C 386.167,391.5 388.833,391.5 391.5,391.5C 391.238,390.022 391.571,388.689 392.5,387.5C 396.758,385.096 396.425,383.429 391.5,382.5C 393.657,380.588 395.991,378.921 398.5,377.5C 400.523,378.041 402.523,377.541 404.5,376C 403.556,373.281 403.223,370.448 403.5,367.5C 406.272,368.371 408.938,368.371 411.5,367.5C 411.5,364.833 411.5,362.167 411.5,359.5C 415.409,360.263 416.742,358.93 415.5,355.5C 416.531,354.3 417.365,352.966 418,351.5C 419.408,355.169 421.075,355.169 423,351.5C 423.173,347.459 423.673,343.459 424.5,339.5C 425.478,339.023 426.311,338.357 427,337.5C 427.498,334.183 427.665,330.85 427.5,327.5C 428.833,327.5 430.167,327.5 431.5,327.5C 431.5,324.833 431.5,322.167 431.5,319.5C 432.833,319.5 434.167,319.5 435.5,319.5C 435.5,316.833 435.5,314.167 435.5,311.5C 436.833,311.5 438.167,311.5 439.5,311.5C 439.5,306.167 439.5,300.833 439.5,295.5C 440.833,295.5 442.167,295.5 443.5,295.5C 443.5,287.5 443.5,279.5 443.5,271.5C 444.833,271.5 446.167,271.5 447.5,271.5C 447.5,258.167 447.5,244.833 447.5,231.5C 446.167,231.5 444.833,231.5 443.5,231.5C 443.5,220.833 443.5,210.167 443.5,199.5C 442.167,199.5 440.833,199.5 439.5,199.5C 439.5,196.833 439.5,194.167 439.5,191.5C 438.167,191.5 436.833,191.5 435.5,191.5C 435.5,186.167 435.5,180.833 435.5,175.5C 434.167,175.5 432.833,175.5 431.5,175.5C 431.5,172.833 431.5,170.167 431.5,167.5C 430.167,167.5 428.833,167.5 427.5,167.5C 427.5,164.833 427.5,162.167 427.5,159.5C 426.167,159.5 424.833,159.5 423.5,159.5C 423.627,156.755 422.46,154.755 420,153.5C 419.502,150.183 419.335,146.85 419.5,143.5C 418.167,143.5 416.833,143.5 415.5,143.5C 415.762,142.022 415.429,140.689 414.5,139.5C 413.167,138.833 412.167,137.833 411.5,136.5C 410.311,135.571 408.978,135.238 407.5,135.5C 407.762,134.022 407.429,132.689 406.5,131.5C 402.242,129.096 402.575,127.429 407.5,126.5C 403.949,123.258 399.949,120.925 395.5,119.5C 395.5,116.833 395.5,114.167 395.5,111.5C 389.977,113.014 387.31,113.014 387.5,111.5C 387.5,108.833 387.5,106.167 387.5,103.5C 383.183,102.038 379.183,99.8718 375.5,97C 372.833,96.6667 370.167,96.3333 367.5,96C 368.938,95.7811 370.271,95.2811 371.5,94.5C 371.333,94.1667 371.167,93.8333 371,93.5C 368.133,92.3343 365.633,90.6676 363.5,88.5C 365.167,87.8333 366.833,87.1667 368.5,86.5C 362.901,84.9956 357.234,83.9956 351.5,83.5C 351.5,82.5 351.5,81.5 351.5,80.5C 348.813,80.6641 346.146,80.4974 343.5,80C 347.483,79.77 348.149,78.4366 345.5,76C 342.183,75.5017 338.85,75.335 335.5,75.5C 335.5,74.5 335.5,73.5 335.5,72.5C 332.813,72.6641 330.146,72.4974 327.5,72C 331.483,71.77 332.149,70.4366 329.5,68C 326.183,67.5017 322.85,67.335 319.5,67.5C 319.5,66.5 319.5,65.5 319.5,64.5C 316.813,64.6641 314.146,64.4974 311.5,64C 314.833,63.6667 318.167,63.3333 321.5,63C 313.057,60.361 304.39,59.1944 295.5,59.5C 295.5,58.5 295.5,57.5 295.5,56.5C 290.156,56.666 284.823,56.4994 279.5,56C 282.7,55.8985 285.7,55.2319 288.5,54C 278.83,53.2251 269.163,52.3918 259.5,51.5C 250.165,52.3336 240.832,53.1669 231.5,54C 228.833,54.6667 228.833,55.3333 231.5,56C 223.507,56.4997 215.507,56.6664 207.5,56.5C 207.5,57.5 207.5,58.5 207.5,59.5C 204.833,59.5 202.167,59.5 199.5,59.5C 199.649,58.448 199.483,57.448 199,56.5C 198.682,58.0609 197.849,59.2276 196.5,60C 197.5,60.3333 198.5,60.6667 199.5,61C 195.5,61.6667 195.5,62.3333 199.5,63C 198.833,63.1667 198.167,63.3333 197.5,63.5C 192.761,64.3516 187.928,64.3516 183,63.5C 182.695,65.5568 182.695,67.5568 183,69.5C 181.16,67.5464 180.327,65.5464 180.5,63.5C 179.571,64.6888 179.238,66.0222 179.5,67.5C 176.167,67.5 172.833,67.5 169.5,67.5C 175.849,63.8722 182.516,60.7055 189.5,58C 232.379,42.8189 275.712,41.4855 319.5,54C 384.515,75.6818 428.348,118.848 451,183.5C 467.569,239.107 462.402,292.607 435.5,344C 435.85,345.257 436.517,345.591 437.5,345C 438.883,343.729 439.883,342.229 440.5,340.5 Z"/></g>
<g><path style="opacity:1" fill="#151515" d="M 292.5,255.5 C 290.45,253.763 288.617,251.763 287,249.5C 286.667,252.5 286.333,255.5 286,258.5C 284.286,244.181 286.453,243.181 292.5,255.5 Z"/></g>
<g><path style="opacity:1" fill="#1e1e1e" d="M 214.5,257.5 C 215.684,256.312 215.684,255.145 214.5,254C 212.238,253.358 210.071,252.525 208,251.5C 207.835,247.023 210.002,245.523 214.5,247C 215.167,247.667 215.833,248.333 216.5,249C 206.139,248.716 205.973,250.216 216,253.5C 216.844,255.463 216.344,256.796 214.5,257.5 Z"/></g>
<g><path style="opacity:1" fill="#242424" d="M 329.5,246.5 C 330.75,246.577 331.583,247.244 332,248.5C 333.639,251.742 334.639,255.076 335,258.5C 334.424,256.148 332.924,255.148 330.5,255.5C 328.072,255.872 326.072,256.705 324.5,258C 326.31,254.214 327.977,250.381 329.5,246.5 Z"/></g>
<g><path style="opacity:1" fill="#eeeeee" d="M 329.5,249.5 C 331.026,250.105 332.026,251.271 332.5,253C 331.056,253.781 329.723,253.614 328.5,252.5C 329.127,251.583 329.461,250.583 329.5,249.5 Z"/></g>
<g><path style="opacity:1" fill="#0f0f0f" d="M 292.5,255.5 C 294.237,252.992 295.07,249.992 295,246.5C 295.827,250.541 295.66,254.541 294.5,258.5C 293.081,257.995 292.415,256.995 292.5,255.5 Z"/></g>
<g><path style="opacity:1" fill="#272727" d="M 249.5,246.5 C 250.496,246.414 251.329,246.748 252,247.5C 253.226,250.952 254.726,254.285 256.5,257.5C 256.167,257.833 255.833,258.167 255.5,258.5C 254.614,257.675 254.281,256.675 254.5,255.5C 251.028,254.963 248.195,255.963 246,258.5C 246.83,254.478 247.996,250.478 249.5,246.5 Z"/></g>
<g><path style="opacity:1" fill="#efefef" d="M 250.5,248.5 C 251.931,249.78 252.598,251.447 252.5,253.5C 251.5,253.5 250.5,253.5 249.5,253.5C 249.629,251.784 249.962,250.117 250.5,248.5 Z"/></g>
<g><path style="opacity:1" fill="#1b1b1b" d="M 214.5,257.5 C 212.712,258.622 210.712,258.789 208.5,258C 207.483,256.951 207.316,255.784 208,254.5C 209.465,256.915 211.632,257.915 214.5,257.5 Z"/></g>
<g><path style="opacity:1" fill="#020202" d="M 260.5,267.5 C 266.833,267.5 273.167,267.5 279.5,267.5C 279.5,294.167 279.5,320.833 279.5,347.5C 273.167,347.5 266.833,347.5 260.5,347.5C 260.5,320.833 260.5,294.167 260.5,267.5 Z"/></g>
<g><path style="opacity:1" fill="#030303" d="M 372.5,304.5 C 372.491,306.308 372.991,307.975 374,309.5C 374.5,295.504 374.667,281.504 374.5,267.5C 380.833,267.5 387.167,267.5 393.5,267.5C 393.5,294.167 393.5,320.833 393.5,347.5C 386.833,347.5 380.167,347.5 373.5,347.5C 373.977,320.484 370.644,293.984 363.5,268C 364.449,267.383 365.282,267.549 366,268.5C 368.924,280.38 371.091,292.38 372.5,304.5 Z"/></g>
<g><path style="opacity:1" fill="#060606" d="M 189.5,268.5 C 203.661,267.339 217.994,267.173 232.5,268C 246.991,282.485 251.491,299.652 246,319.5C 239.613,334.467 228.447,343.967 212.5,348C 170.294,355.711 135.127,343.544 107,311.5C 106.333,299.167 106.333,286.833 107,274.5C 117.223,300.718 134.056,321.551 157.5,337C 179.698,350.993 202.365,351.993 225.5,340C 242.876,326.591 244.043,311.758 229,295.5C 217.581,283.909 204.414,274.909 189.5,268.5 Z"/></g>
<g><path style="opacity:1" fill="#3a3a3a" d="M 374.5,267.5 C 374.667,281.504 374.5,295.504 374,309.5C 372.991,307.975 372.491,306.308 372.5,304.5C 373.167,292.167 373.833,279.833 374.5,267.5 Z"/></g>
<g><path style="opacity:1" fill="#e3e3e3" d="M -0.5,303.5 C 0.5,303.5 1.5,303.5 2.5,303.5C 3.16667,311.5 3.83333,319.5 4.5,327.5C 5.5,327.5 6.5,327.5 7.5,327.5C 7.5,330.167 7.5,332.833 7.5,335.5C 8.83333,335.5 10.1667,335.5 11.5,335.5C 11.5,338.167 11.5,340.833 11.5,343.5C 12.8333,343.5 14.1667,343.5 15.5,343.5C 15.2317,346.119 15.565,348.619 16.5,351C 15.8333,351.333 15.1667,351.667 14.5,352C 18.055,354.21 19.8884,357.377 20,361.5C 22.1476,362.805 23.6476,364.638 24.5,367C 23.8333,367.333 23.1667,367.667 22.5,368C 25.1625,370.668 26.9958,373.835 28,377.5C 30,378.833 32,380.167 34,381.5C 34.1667,381.833 34.3333,382.167 34.5,382.5C 33.5,383.167 32.5,383.833 31.5,384.5C 34.1667,386.5 36.8333,388.5 39.5,390.5C 38.3845,391.598 38.3845,392.765 39.5,394C 42.2171,398.5 45.2171,402.833 48.5,407C 48.0426,407.414 47.7093,407.914 47.5,408.5C 49.6572,410.412 51.9906,412.079 54.5,413.5C 56.1387,417.139 58.8053,419.805 62.5,421.5C 64.4722,425.472 67.4722,428.472 71.5,430.5C 70.5,431.167 69.5,431.833 68.5,432.5C 69.668,435.469 71.0013,435.802 72.5,433.5C 76.1947,435.195 78.8613,437.861 80.5,441.5C 88.6621,446.058 95.6621,451.891 101.5,459C 102.833,459.333 104.167,459.667 105.5,460C 108.109,463.576 111.442,465.076 115.5,464.5C 118.435,466.902 120.435,469.902 121.5,473.5C 118.944,473.132 116.944,473.966 115.5,476C 115.645,476.772 115.978,477.439 116.5,478C 118.351,478.837 120.184,479.671 122,480.5C 122.483,481.448 122.649,482.448 122.5,483.5C 120.173,483.753 118.173,483.086 116.5,481.5C 115.702,481.957 115.369,482.624 115.5,483.5C 114.293,484.189 112.959,484.355 111.5,484C 112.28,485.073 112.113,486.24 111,487.5C 106.41,484.121 101.91,480.621 97.5,477C 93.7363,475.688 90.4029,473.854 87.5,471.5C 87.6495,470.448 87.4828,469.448 87,468.5C 85.0283,467.695 83.5283,466.361 82.5,464.5C 76.1951,461.01 70.1951,457.01 64.5,452.5C 58.2346,445.266 51.5679,438.433 44.5,432C 45.1667,431.667 45.8333,431.333 46.5,431C 41.6634,426.2 36.6634,421.533 31.5,417C 32.6274,415.943 33.1274,414.777 33,413.5C 30.828,412.415 28.828,411.081 27,409.5C 26.3828,408.551 26.5494,407.718 27.5,407C 25.5947,405.13 23.4281,403.63 21,402.5C 20.342,400.892 20.842,399.725 22.5,399C 20.9242,396.923 18.9242,395.423 16.5,394.5C 14.7092,390.877 12.7092,387.377 10.5,384C 11.4506,383.282 11.6172,382.449 11,381.5C 9.16667,379.667 7.33333,377.833 5.5,376C 6.42797,375.612 7.09464,374.945 7.5,374C 5.3874,372.163 3.55406,369.996 2,367.5C 1.66667,364.167 1.33333,360.833 1,357.5C 0.617425,356.944 0.117425,356.611 -0.5,356.5C -0.5,338.833 -0.5,321.167 -0.5,303.5 Z"/></g>
<g><path style="opacity:1" fill="#e3e3e3" d="M 499.5,313.5 C 499.5,328.833 499.5,344.167 499.5,359.5C 498.073,365.5 495.073,370.833 490.5,375.5C 490.121,381.055 487.954,385.721 484,389.5C 483.383,390.449 483.549,391.282 484.5,392C 482.817,395.01 481.15,398.01 479.5,401C 474.803,403.528 471.803,407.361 470.5,412.5C 466.383,415.553 462.716,419.053 459.5,423C 459.957,423.414 460.291,423.914 460.5,424.5C 459.472,426.361 457.972,427.695 456,428.5C 455.517,429.448 455.351,430.448 455.5,431.5C 453.095,432.687 450.761,434.187 448.5,436C 447.663,437.011 447.33,438.178 447.5,439.5C 446.448,439.351 445.448,439.517 444.5,440C 441.57,445.386 437.403,449.553 432,452.5C 431.517,453.448 431.351,454.448 431.5,455.5C 428.597,457.854 425.264,459.688 421.5,461C 417.892,464.085 414.559,467.418 411.5,471C 415.812,472.871 416.312,474.371 413,475.5C 411.972,473.639 410.472,472.305 408.5,471.5C 407.045,472.39 405.711,472.39 404.5,471.5C 403.646,472.522 402.646,473.355 401.5,474C 402.305,475.113 402.972,476.279 403.5,477.5C 403.414,479.677 402.747,481.677 401.5,483.5C 401.624,484.107 401.957,484.44 402.5,484.5C 403.313,485.653 404.313,485.653 405.5,484.5C 406.197,486.385 407.197,486.718 408.5,485.5C 409.197,487.385 410.197,487.718 411.5,486.5C 412.583,487.365 412.749,488.365 412,489.5C 407.447,493.251 402.281,495.251 396.5,495.5C 396.5,496.833 396.5,498.167 396.5,499.5C 368.833,499.5 341.167,499.5 313.5,499.5C 314.695,496.15 316.862,495.15 320,496.5C 322.573,495.346 324.739,493.68 326.5,491.5C 327.167,492.167 327.833,492.833 328.5,493.5C 330.5,492.167 332.5,490.833 334.5,489.5C 335.258,490.811 336.258,491.311 337.5,491C 338.659,489.173 339.992,487.507 341.5,486C 340.944,485.617 340.611,485.117 340.5,484.5C 342.857,484.663 345.19,484.497 347.5,484C 345.292,483.809 343.292,483.309 341.5,482.5C 342.222,482.082 342.722,481.416 343,480.5C 344.587,481.727 345.921,481.394 347,479.5C 348.413,481.414 350.247,482.747 352.5,483.5C 353.833,482.833 354.833,481.833 355.5,480.5C 356.689,479.571 358.022,479.238 359.5,479.5C 359.205,477.265 359.539,475.265 360.5,473.5C 360.5,477.167 360.5,480.833 360.5,484.5C 363.187,484.664 365.854,484.497 368.5,484C 366.19,483.503 363.857,483.337 361.5,483.5C 361.5,482.167 361.5,480.833 361.5,479.5C 369.5,479.167 369.5,478.833 361.5,478.5C 361.5,477.167 361.5,475.833 361.5,474.5C 364.059,474.802 366.393,474.468 368.5,473.5C 369.151,472.909 369.818,472.243 370.5,471.5C 372.678,473.439 375.011,474.106 377.5,473.5C 377.192,474.308 376.692,474.975 376,475.5C 375.282,474.549 374.449,474.383 373.5,475C 374.328,475.915 375.328,476.581 376.5,477C 375.5,477.333 374.5,477.667 373.5,478C 375.919,479.93 377.586,479.597 378.5,477C 382.5,476.333 382.5,475.667 378.5,475C 379.641,474.259 379.641,473.425 378.5,472.5C 381.015,467.126 385.015,463.959 390.5,463C 394.698,459.97 399.032,457.137 403.5,454.5C 405.68,452.739 407.346,450.573 408.5,448C 411.489,445.011 414.989,442.844 419,441.5C 419.163,439.324 419.996,437.491 421.5,436C 425.165,434.996 428.332,433.162 431,430.5C 433.989,427.511 436.156,424.011 437.5,420C 441.667,419.833 443.833,417.667 444,413.5C 446.766,409.408 450.266,406.074 454.5,403.5C 455.167,401.5 455.833,399.5 456.5,397.5C 459.009,396.079 461.343,394.412 463.5,392.5C 463.291,391.914 462.957,391.414 462.5,391C 464,389.5 465.5,388 467,386.5C 467.333,384.5 467.667,382.5 468,380.5C 469.5,379 471,377.5 472.5,376C 471.833,375.667 471.167,375.333 470.5,375C 472.17,372.405 474.004,369.905 476,367.5C 476.182,364.774 476.682,362.107 477.5,359.5C 479.507,356.735 481.674,354.068 484,351.5C 484.333,348.167 484.667,344.833 485,341.5C 486.309,339.109 487.309,339.109 488,341.5C 489,340.5 490,339.5 491,338.5C 491.499,334.848 491.665,331.182 491.5,327.5C 492.833,327.5 494.167,327.5 495.5,327.5C 495.5,322.833 495.5,318.167 495.5,313.5C 496.833,313.5 498.167,313.5 499.5,313.5 Z"/></g>
<g><path style="opacity:1" fill="#111111" d="M 431.5,356.5 C 431.739,358.467 431.406,360.301 430.5,362C 427.502,362.891 424.836,362.391 422.5,360.5C 422.504,355.011 425.171,353.178 430.5,355C 431.056,355.383 431.389,355.883 431.5,356.5 Z"/></g>
<g><path style="opacity:1" fill="#dedede" d="M -0.5,356.5 C 0.117425,356.611 0.617425,356.944 1,357.5C 1.33333,360.833 1.66667,364.167 2,367.5C 3.55406,369.996 5.3874,372.163 7.5,374C 7.09464,374.945 6.42797,375.612 5.5,376C 7.33333,377.833 9.16667,379.667 11,381.5C 11.6172,382.449 11.4506,383.282 10.5,384C 12.7092,387.377 14.7092,390.877 16.5,394.5C 18.9242,395.423 20.9242,396.923 22.5,399C 20.842,399.725 20.342,400.892 21,402.5C 23.4281,403.63 25.5947,405.13 27.5,407C 26.5494,407.718 26.3828,408.551 27,409.5C 28.828,411.081 30.828,412.415 33,413.5C 33.1274,414.777 32.6274,415.943 31.5,417C 36.6634,421.533 41.6634,426.2 46.5,431C 45.8333,431.333 45.1667,431.667 44.5,432C 51.5679,438.433 58.2346,445.266 64.5,452.5C 70.1951,457.01 76.1951,461.01 82.5,464.5C 83.5283,466.361 85.0283,467.695 87,468.5C 87.4828,469.448 87.6495,470.448 87.5,471.5C 90.4029,473.854 93.7363,475.688 97.5,477C 101.91,480.621 106.41,484.121 111,487.5C 112.113,486.24 112.28,485.073 111.5,484C 112.959,484.355 114.293,484.189 115.5,483.5C 118.371,484.679 121.204,484.679 124,483.5C 124.667,482.5 124.667,481.5 124,480.5C 121.899,479.076 119.733,477.742 117.5,476.5C 119.359,473.981 121.359,473.981 123.5,476.5C 124.463,476.03 124.463,475.363 123.5,474.5C 123.942,473.769 124.109,472.769 124,471.5C 127.45,472.785 130.95,474.785 134.5,477.5C 136.109,477.611 137.775,477.278 139.5,476.5C 139.5,477.167 139.5,477.833 139.5,478.5C 135.005,484.543 135.672,485.543 141.5,481.5C 143.924,481.148 145.424,482.148 146,484.5C 146.295,481.758 145.462,479.425 143.5,477.5C 143.5,476.833 143.5,476.167 143.5,475.5C 144.552,475.351 145.552,475.517 146.5,476C 145.549,476.718 145.383,477.551 146,478.5C 146.72,476.745 147.887,475.911 149.5,476C 148.978,476.561 148.645,477.228 148.5,478C 148.944,479.762 149.444,479.595 150,477.5C 150.333,479.167 150.667,480.833 151,482.5C 153.737,484.828 156.57,486.995 159.5,489C 162.226,489.182 164.893,489.682 167.5,490.5C 169.525,492.196 171.525,493.863 173.5,495.5C 176.674,495.169 180.008,495.169 183.5,495.5C 183.5,496.833 183.5,498.167 183.5,499.5C 156.167,499.5 128.833,499.5 101.5,499.5C 101.5,498.167 101.5,496.833 101.5,495.5C 99.1432,495.663 96.8098,495.497 94.5,495C 89.9863,491.909 85.653,488.575 81.5,485C 77.7363,483.688 74.4029,481.854 71.5,479.5C 71.67,478.178 71.3366,477.011 70.5,476C 63.2578,471.759 56.9245,466.425 51.5,460C 49.0038,458.92 46.6705,457.586 44.5,456C 45.1667,455.667 45.8333,455.333 46.5,455C 43.5165,452.174 40.1832,449.841 36.5,448C 37.1667,447.667 37.8333,447.333 38.5,447C 33.7529,442.879 29.0863,438.713 24.5,434.5C 22.7092,430.877 20.7092,427.377 18.5,424C 18.8333,423.667 19.1667,423.333 19.5,423C 16.2842,419.053 12.6175,415.553 8.5,412.5C 7.54811,410.955 7.21478,409.288 7.5,407.5C 6.32496,407.719 5.32496,407.386 4.5,406.5C 3.5,404.5 2.5,402.5 1.5,400.5C 3.6099,398.488 2.94323,397.155 -0.5,396.5C -0.5,383.167 -0.5,369.833 -0.5,356.5 Z"/></g>
<g><path style="opacity:1" fill="#dddddd" d="M 499.5,359.5 C 499.5,371.833 499.5,384.167 499.5,396.5C 496.88,399.957 494.214,403.457 491.5,407C 492.451,407.718 492.617,408.551 492,409.5C 490.846,410.743 489.512,411.743 488,412.5C 487.808,414.577 487.308,416.577 486.5,418.5C 484.076,419.423 482.076,420.923 480.5,423C 481.167,423.333 481.833,423.667 482.5,424C 477.5,429 472.5,434 467.5,439C 467.957,439.414 468.291,439.914 468.5,440.5C 467.472,442.361 465.972,443.695 464,444.5C 463.517,445.448 463.351,446.448 463.5,447.5C 461.095,448.687 458.761,450.187 456.5,452C 455.663,453.011 455.33,454.178 455.5,455.5C 453.095,456.687 450.761,458.187 448.5,460C 447.663,461.011 447.33,462.178 447.5,463.5C 444.597,465.854 441.264,467.688 437.5,469C 431.258,476.242 424.092,482.408 416,487.5C 415.02,486.019 413.853,484.685 412.5,483.5C 413.041,481.477 412.541,479.477 411,477.5C 410.617,478.056 410.117,478.389 409.5,478.5C 409.5,477.833 409.167,477.5 408.5,477.5C 408.778,475.654 408.111,474.32 406.5,473.5C 405.479,474.901 404.479,476.235 403.5,477.5C 402.972,476.279 402.305,475.113 401.5,474C 402.646,473.355 403.646,472.522 404.5,471.5C 405.711,472.39 407.045,472.39 408.5,471.5C 410.472,472.305 411.972,473.639 413,475.5C 416.312,474.371 415.812,472.871 411.5,471C 414.559,467.418 417.892,464.085 421.5,461C 425.264,459.688 428.597,457.854 431.5,455.5C 431.351,454.448 431.517,453.448 432,452.5C 437.403,449.553 441.57,445.386 444.5,440C 445.448,439.517 446.448,439.351 447.5,439.5C 447.33,438.178 447.663,437.011 448.5,436C 450.761,434.187 453.095,432.687 455.5,431.5C 455.351,430.448 455.517,429.448 456,428.5C 457.972,427.695 459.472,426.361 460.5,424.5C 460.291,423.914 459.957,423.414 459.5,423C 462.716,419.053 466.383,415.553 470.5,412.5C 471.803,407.361 474.803,403.528 479.5,401C 481.15,398.01 482.817,395.01 484.5,392C 483.549,391.282 483.383,390.449 484,389.5C 487.954,385.721 490.121,381.055 490.5,375.5C 495.073,370.833 498.073,365.5 499.5,359.5 Z"/></g>
<g><path style="opacity:1" fill="#131313" d="M 402.5,381.5 C 409.486,381.331 411.153,384.164 407.5,390C 400.868,390.086 399.201,387.253 402.5,381.5 Z"/></g>
<g><path style="opacity:1" fill="#d7d7d7" d="M -0.5,396.5 C 2.94323,397.155 3.6099,398.488 1.5,400.5C 2.5,402.5 3.5,404.5 4.5,406.5C 5.32496,407.386 6.32496,407.719 7.5,407.5C 7.21478,409.288 7.54811,410.955 8.5,412.5C 12.6175,415.553 16.2842,419.053 19.5,423C 19.1667,423.333 18.8333,423.667 18.5,424C 20.7092,427.377 22.7092,430.877 24.5,434.5C 29.0863,438.713 33.7529,442.879 38.5,447C 37.8333,447.333 37.1667,447.667 36.5,448C 40.1832,449.841 43.5165,452.174 46.5,455C 45.8333,455.333 45.1667,455.667 44.5,456C 46.6705,457.586 49.0038,458.92 51.5,460C 56.9245,466.425 63.2578,471.759 70.5,476C 71.3366,477.011 71.67,478.178 71.5,479.5C 74.4029,481.854 77.7363,483.688 81.5,485C 85.653,488.575 89.9863,491.909 94.5,495C 96.8098,495.497 99.1432,495.663 101.5,495.5C 101.5,496.833 101.5,498.167 101.5,499.5C 90.8333,499.5 80.1667,499.5 69.5,499.5C 69.5,498.167 69.5,496.833 69.5,495.5C 67.1432,495.663 64.8098,495.497 62.5,495C 59.5165,492.174 56.1832,489.841 52.5,488C 53.1667,487.667 53.8333,487.333 54.5,487C 51.5165,484.174 48.1832,481.841 44.5,480C 45.1667,479.667 45.8333,479.333 46.5,479C 41.6544,475.743 36.9878,472.243 32.5,468.5C 31.5762,466.61 30.2429,465.11 28.5,464C 29.1667,463.667 29.8333,463.333 30.5,463C 27.5165,460.174 24.1832,457.841 20.5,456C 21.1667,455.667 21.8333,455.333 22.5,455C 19.5165,452.174 16.1832,449.841 12.5,448C 13.1667,447.667 13.8333,447.333 14.5,447C 12.9242,444.923 10.9242,443.423 8.5,442.5C 6.73212,438.396 3.73212,435.73 -0.5,434.5C -0.5,421.833 -0.5,409.167 -0.5,396.5 Z"/></g>
<g><path style="opacity:1" fill="#d7d7d7" d="M 499.5,396.5 C 499.5,407.167 499.5,417.833 499.5,428.5C 496.88,431.957 494.214,435.457 491.5,439C 492.451,439.718 492.617,440.551 492,441.5C 489.148,443.335 486.314,445.169 483.5,447C 483.957,447.414 484.291,447.914 484.5,448.5C 483.472,450.361 481.972,451.695 480,452.5C 479.517,453.448 479.351,454.448 479.5,455.5C 477.095,456.687 474.761,458.187 472.5,460C 471.663,461.011 471.33,462.178 471.5,463.5C 469.095,464.687 466.761,466.187 464.5,468C 463.663,469.011 463.33,470.178 463.5,471.5C 461.095,472.687 458.761,474.187 456.5,476C 455.663,477.011 455.33,478.178 455.5,479.5C 452.597,481.854 449.264,483.688 445.5,485C 444.685,486.943 443.685,488.943 442.5,491C 439.816,491.778 437.483,493.111 435.5,495C 433.19,495.497 430.857,495.663 428.5,495.5C 428.5,496.833 428.5,498.167 428.5,499.5C 417.833,499.5 407.167,499.5 396.5,499.5C 396.5,498.167 396.5,496.833 396.5,495.5C 402.281,495.251 407.447,493.251 412,489.5C 412.749,488.365 412.583,487.365 411.5,486.5C 410.197,487.718 409.197,487.385 408.5,485.5C 407.197,486.718 406.197,486.385 405.5,484.5C 404.313,485.653 403.313,485.653 402.5,484.5C 404.041,481.817 406.374,480.984 409.5,482C 410.126,482.75 410.626,483.584 411,484.5C 411.409,482.305 410.909,480.305 409.5,478.5C 410.117,478.389 410.617,478.056 411,477.5C 412.541,479.477 413.041,481.477 412.5,483.5C 413.853,484.685 415.02,486.019 416,487.5C 424.092,482.408 431.258,476.242 437.5,469C 441.264,467.688 444.597,465.854 447.5,463.5C 447.33,462.178 447.663,461.011 448.5,460C 450.761,458.187 453.095,456.687 455.5,455.5C 455.33,454.178 455.663,453.011 456.5,452C 458.761,450.187 461.095,448.687 463.5,447.5C 463.351,446.448 463.517,445.448 464,444.5C 465.972,443.695 467.472,442.361 468.5,440.5C 468.291,439.914 467.957,439.414 467.5,439C 472.5,434 477.5,429 482.5,424C 481.833,423.667 481.167,423.333 480.5,423C 482.076,420.923 484.076,419.423 486.5,418.5C 487.308,416.577 487.808,414.577 488,412.5C 489.512,411.743 490.846,410.743 492,409.5C 492.617,408.551 492.451,407.718 491.5,407C 494.214,403.457 496.88,399.957 499.5,396.5 Z"/></g>
<g><path style="opacity:1" fill="#0c0c0c" d="M 374.5,407.5 C 374.5,407.167 374.5,406.833 374.5,406.5C 376.496,404.667 378.829,404.167 381.5,405C 384.08,407.544 384.08,410.044 381.5,412.5C 376.702,414.375 374.369,412.708 374.5,407.5 Z"/></g>
<g><path style="opacity:1" fill="#0e0e0e" d="M 346.5,422.5 C 353.913,422.699 355.246,425.532 350.5,431C 344.785,431.401 343.119,428.901 345.5,423.5C 346.167,423.5 346.5,423.167 346.5,422.5 Z"/></g>
<g><path style="opacity:1" fill="#d0d0d0" d="M 499.5,428.5 C 499.5,452.167 499.5,475.833 499.5,499.5C 475.833,499.5 452.167,499.5 428.5,499.5C 428.5,498.167 428.5,496.833 428.5,495.5C 430.857,495.663 433.19,495.497 435.5,495C 437.483,493.111 439.816,491.778 442.5,491C 443.685,488.943 444.685,486.943 445.5,485C 449.264,483.688 452.597,481.854 455.5,479.5C 455.33,478.178 455.663,477.011 456.5,476C 458.761,474.187 461.095,472.687 463.5,471.5C 463.33,470.178 463.663,469.011 464.5,468C 466.761,466.187 469.095,464.687 471.5,463.5C 471.33,462.178 471.663,461.011 472.5,460C 474.761,458.187 477.095,456.687 479.5,455.5C 479.351,454.448 479.517,453.448 480,452.5C 481.972,451.695 483.472,450.361 484.5,448.5C 484.291,447.914 483.957,447.414 483.5,447C 486.314,445.169 489.148,443.335 492,441.5C 492.617,440.551 492.451,439.718 491.5,439C 494.214,435.457 496.88,431.957 499.5,428.5 Z"/></g>
<g><path style="opacity:1" fill="#d0d0d0" d="M -0.5,434.5 C 3.73212,435.73 6.73212,438.396 8.5,442.5C 10.9242,443.423 12.9242,444.923 14.5,447C 13.8333,447.333 13.1667,447.667 12.5,448C 16.1832,449.841 19.5165,452.174 22.5,455C 21.8333,455.333 21.1667,455.667 20.5,456C 24.1832,457.841 27.5165,460.174 30.5,463C 29.8333,463.333 29.1667,463.667 28.5,464C 30.2429,465.11 31.5762,466.61 32.5,468.5C 36.9878,472.243 41.6544,475.743 46.5,479C 45.8333,479.333 45.1667,479.667 44.5,480C 48.1832,481.841 51.5165,484.174 54.5,487C 53.8333,487.333 53.1667,487.667 52.5,488C 56.1832,489.841 59.5165,492.174 62.5,495C 64.8098,495.497 67.1432,495.663 69.5,495.5C 69.5,496.833 69.5,498.167 69.5,499.5C 46.1667,499.5 22.8333,499.5 -0.5,499.5C -0.5,477.833 -0.5,456.167 -0.5,434.5 Z"/></g>
<g><path style="opacity:1" fill="#151515" d="M 143.5,475.5 C 143.5,476.167 143.5,476.833 143.5,477.5C 142.778,477.082 142.278,476.416 142,475.5C 141.148,476.571 140.315,477.571 139.5,478.5C 139.5,477.833 139.5,477.167 139.5,476.5C 140.41,473.186 141.743,472.852 143.5,475.5 Z"/></g>
<g><path style="opacity:1" fill="#000000" d="M 246.5,476.5 C 246.461,475.244 246.961,474.244 248,473.5C 248.585,474.998 248.085,475.998 246.5,476.5 Z"/></g>
<g><path style="opacity:1" fill="#0d0d0d" d="M 385.5,478.5 C 385.511,476.983 386.177,475.816 387.5,475C 385.167,474.667 382.833,474.333 380.5,474C 383.554,473.179 386.554,473.345 389.5,474.5C 388.479,476.188 387.145,477.521 385.5,478.5 Z"/></g>
<g><path style="opacity:1" fill="#373737" d="M 161.5,473.5 C 161.5,476.833 161.5,480.167 161.5,483.5C 163.527,483.338 165.527,483.505 167.5,484C 164.854,484.497 162.187,484.664 159.5,484.5C 158.92,480.351 159.586,476.684 161.5,473.5 Z"/></g>
<g><path style="opacity:1" fill="#464646" d="M 189.5,476.5 C 189.66,478.199 189.494,479.866 189,481.5C 188.583,482.756 187.75,483.423 186.5,483.5C 187.093,480.2 187.76,476.866 188.5,473.5C 189.386,474.325 189.719,475.325 189.5,476.5 Z"/></g>
<g><path style="opacity:1" fill="#020202" d="M 360.5,473.5 C 363.167,473.5 365.833,473.5 368.5,473.5C 366.393,474.468 364.059,474.802 361.5,474.5C 361.5,475.833 361.5,477.167 361.5,478.5C 369.5,478.833 369.5,479.167 361.5,479.5C 361.5,480.833 361.5,482.167 361.5,483.5C 363.857,483.337 366.19,483.503 368.5,484C 365.854,484.497 363.187,484.664 360.5,484.5C 360.5,480.833 360.5,477.167 360.5,473.5 Z"/></g>
<g><path style="opacity:1" fill="#c0c0c0" d="M 143.5,477.5 C 143.5,478.5 143.5,479.5 143.5,480.5C 141.517,480.843 140.183,480.176 139.5,478.5C 140.315,477.571 141.148,476.571 142,475.5C 142.278,476.416 142.778,477.082 143.5,477.5 Z"/></g>
<g><path style="opacity:1" fill="#111111" d="M 246.5,476.5 C 246.443,477.609 246.11,478.609 245.5,479.5C 244.698,480.952 244.198,482.618 244,484.5C 243.802,482.618 243.302,480.952 242.5,479.5C 238.482,472.2 238.982,471.867 244,478.5C 244.708,477.619 245.542,476.953 246.5,476.5 Z"/></g>
<g><path style="opacity:1" fill="#272727" d="M 121.5,473.5 C 122.167,473.833 122.833,474.167 123.5,474.5C 124.463,475.363 124.463,476.03 123.5,476.5C 121.359,473.981 119.359,473.981 117.5,476.5C 119.733,477.742 121.899,479.076 124,480.5C 124.667,481.5 124.667,482.5 124,483.5C 121.204,484.679 118.371,484.679 115.5,483.5C 115.369,482.624 115.702,481.957 116.5,481.5C 118.173,483.086 120.173,483.753 122.5,483.5C 122.649,482.448 122.483,481.448 122,480.5C 120.184,479.671 118.351,478.837 116.5,478C 115.978,477.439 115.645,476.772 115.5,476C 116.944,473.966 118.944,473.132 121.5,473.5 Z"/></g>
<g><path style="opacity:1" fill="#0a0a0a" d="M 143.5,477.5 C 145.462,479.425 146.295,481.758 146,484.5C 145.424,482.148 143.924,481.148 141.5,481.5C 135.672,485.543 135.005,484.543 139.5,478.5C 140.183,480.176 141.517,480.843 143.5,480.5C 143.5,479.5 143.5,478.5 143.5,477.5 Z"/></g>
<g><path style="opacity:1" fill="#111111" d="M 408.5,477.5 C 409.167,477.5 409.5,477.833 409.5,478.5C 410.909,480.305 411.409,482.305 411,484.5C 410.626,483.584 410.126,482.75 409.5,482C 406.374,480.984 404.041,481.817 402.5,484.5C 401.957,484.44 401.624,484.107 401.5,483.5C 402.747,481.677 403.414,479.677 403.5,477.5C 404.479,476.235 405.479,474.901 406.5,473.5C 408.111,474.32 408.778,475.654 408.5,477.5 Z"/></g>
<g><path style="opacity:1" fill="#b9b9b9" d="M 408.5,477.5 C 408.5,478.5 408.5,479.5 408.5,480.5C 403.801,480.443 403.301,478.776 407,475.5C 407.278,476.416 407.778,477.082 408.5,477.5 Z"/></g>
<g><path style="opacity:1" fill="#2a2a2a" d="M 306.5,479.5 C 304.5,479.5 302.5,479.5 300.5,479.5C 300.5,480.833 300.5,482.167 300.5,483.5C 302.527,483.338 304.527,483.505 306.5,484C 303.854,484.497 301.187,484.664 298.5,484.5C 298.5,480.833 298.5,477.167 298.5,473.5C 301.187,473.336 303.854,473.503 306.5,474C 304.527,474.495 302.527,474.662 300.5,474.5C 300.5,475.833 300.5,477.167 300.5,478.5C 302.735,478.205 304.735,478.539 306.5,479.5 Z"/></g>
<g><path style="opacity:1" fill="#303030" d="M 186.5,483.5 C 181.363,485.389 179.03,483.389 179.5,477.5C 179.238,476.022 179.571,474.689 180.5,473.5C 181.321,476.447 181.821,479.447 182,482.5C 183.356,483.38 184.856,483.714 186.5,483.5 Z"/></g>
<g><path style="opacity:1" fill="#2a2a2a" d="M 210.5,475.5 C 212.28,476.99 212.946,478.99 212.5,481.5C 209.808,484.142 206.475,485.142 202.5,484.5C 202.5,480.833 202.5,477.167 202.5,473.5C 204.857,473.337 207.19,473.503 209.5,474C 210.056,474.383 210.389,474.883 210.5,475.5 Z"/></g>
<g><path style="opacity:1" fill="#e3e3e3" d="M 210.5,475.5 C 212.381,480.962 210.381,483.629 204.5,483.5C 204.5,480.5 204.5,477.5 204.5,474.5C 206.565,474.517 208.565,474.85 210.5,475.5 Z"/></g>
<g><path style="opacity:1" fill="#171717" d="M 283.5,479.5 C 285.71,480.455 286.043,481.955 284.5,484C 281.854,484.497 279.187,484.664 276.5,484.5C 276.5,480.833 276.5,477.167 276.5,473.5C 278.857,473.337 281.19,473.503 283.5,474C 284.752,475.828 284.752,477.661 283.5,479.5 Z"/></g>
<g><path style="opacity:1" fill="#d3d3d3" d="M 283.5,479.5 C 283.5,480.833 283.5,482.167 283.5,483.5C 281.5,483.5 279.5,483.5 277.5,483.5C 277.5,482.167 277.5,480.833 277.5,479.5C 279.5,479.5 281.5,479.5 283.5,479.5 Z"/></g>
<g><path style="opacity:1" fill="#dedede" d="M 277.5,474.5 C 279.977,474.051 281.977,474.717 283.5,476.5C 281.977,478.283 279.977,478.949 277.5,478.5C 277.5,477.167 277.5,475.833 277.5,474.5 Z"/></g>
<g><path style="opacity:1" fill="#020202" d="M 320.5,473.5 C 321.479,476.625 321.813,479.958 321.5,483.5C 323.527,483.338 325.527,483.505 327.5,484C 325.19,484.497 322.857,484.663 320.5,484.5C 320.5,480.833 320.5,477.167 320.5,473.5 Z"/></g>
<g><path style="opacity:1" fill="#020202" d="M 340.5,473.5 C 341.477,476.287 341.81,479.287 341.5,482.5C 343.292,483.309 345.292,483.809 347.5,484C 345.19,484.497 342.857,484.663 340.5,484.5C 340.5,480.833 340.5,477.167 340.5,473.5 Z"/></g>
<g><path style="opacity:1" fill="#0f0f0f" d="M 385.5,478.5 C 385.141,480.371 384.141,481.871 382.5,483C 384.833,483.333 387.167,483.667 389.5,484C 380.159,485.629 378.826,483.796 385.5,478.5 Z"/></g>
</svg>
