<svg width="196" height="188" viewBox="0 0 196 188" fill="none" xmlns="http://www.w3.org/2000/svg">
<g id="Frame 3196">
<g id="Logo">
<g id="Group">
<path id="Vector" fill-rule="evenodd" clip-rule="evenodd" d="M154.584 169.42C154.584 169.563 154.584 169.707 154.584 169.85C154.224 170.327 153.996 170.9 153.9 171.57C153.368 169.466 152.532 169.394 151.392 171.355C150.185 171.569 148.969 171.641 147.744 171.57C147.744 172 147.744 172.43 147.744 172.86C146.519 172.789 145.303 172.861 144.096 173.075C145.464 173.218 146.832 173.362 148.2 173.505C145.206 173.836 142.622 174.552 140.448 175.655C141.012 175.755 141.468 175.97 141.816 176.3C141.816 176.587 141.664 176.73 141.36 176.73C139.865 176.303 138.345 176.232 136.8 176.515C138.616 176.614 138.92 177.187 137.712 178.235C136.2 178.449 134.68 178.521 133.152 178.45C133.152 178.88 133.152 179.31 133.152 179.74C131.927 179.669 130.711 179.741 129.504 179.955C129.938 180.264 130.013 180.622 129.732 181.03C129.005 181.553 128.321 182.126 127.68 182.75C127.068 182.147 126.688 182.29 126.54 183.18C126.37 182.786 126.142 182.428 125.856 182.105C124.649 181.891 123.433 181.819 122.208 181.89C122.208 182.32 122.208 182.75 122.208 183.18C120.224 183.074 118.4 183.504 116.736 184.47C116.027 184.375 115.419 184.088 114.912 183.61C114.55 183.978 114.702 184.336 115.368 184.685C112.97 184.697 110.614 184.339 108.3 183.61C107.616 183.825 106.932 184.04 106.248 184.255C107.22 184.488 108.132 184.847 108.984 185.33C107.698 185.963 106.558 185.819 105.564 184.9C104.298 185.41 103.006 185.41 101.688 184.9C101.045 185.058 100.589 185.416 100.32 185.975C99.1135 186.189 97.8973 186.261 96.6721 186.19C64.2956 183.373 39.7473 168.896 23.0281 142.76C13.8061 126.943 10.0061 110.03 11.6281 92.02C12.3514 91.0869 12.9594 90.0833 13.4521 89.01C19.3801 83.9932 25.0041 78.69 30.3241 73.1C34.1262 68.2191 35.6461 62.7727 34.8841 56.76C34.5567 56.3511 34.1768 56.2797 33.7441 56.545C32.8996 58.6395 31.7596 60.5745 30.3241 62.35C25.9161 66.7932 21.5081 71.2368 17.1001 75.68C15.8541 77.2886 14.7901 79.0086 13.9081 80.84C15.2713 73.7601 17.7793 67.0237 21.4321 60.63C21.8881 60.2718 22.3441 59.9132 22.8001 59.555C29.6104 56.917 36.2986 54.0501 42.8641 50.955C47.1724 47.825 51.1241 44.3132 54.7201 40.42C53.8441 39.9294 52.9321 39.8576 51.9841 40.205C42.9781 42.6233 34.8462 46.5647 27.5881 52.03C29.9492 47.9218 32.9132 44.1236 36.4801 40.635C38.7756 39.4357 41.2079 38.5757 43.7761 38.055C51.6626 37.5193 59.5664 37.2326 67.4881 37.195C74.6828 36.6095 80.687 33.8145 85.5001 28.81C85.8416 28.322 85.7659 27.892 85.2721 27.52C82.6856 29.3127 79.7978 30.3877 76.6081 30.745C69.1602 30.8883 61.7119 31.0317 54.2641 31.175C51.7839 31.4025 49.3516 31.6892 46.9681 32.035C51.2709 28.622 55.9827 25.827 61.1041 23.65C62.6239 23.65 64.1442 23.65 65.6641 23.65C65.5446 23.0146 65.6964 22.4412 66.1201 21.93C66.0412 22.81 66.421 23.67 67.2601 24.51C67.121 23.6744 67.121 22.8144 67.2601 21.93C69.5072 22.2962 71.7111 22.2962 73.8721 21.93C74.1762 21.8583 74.4799 21.7867 74.7841 21.715C72.9601 21.4283 72.9601 21.1417 74.7841 20.855C74.3281 20.7117 73.8721 20.5683 73.4161 20.425C74.0312 20.0929 74.4111 19.5912 74.5561 18.92C74.7763 19.3276 74.852 19.7576 74.7841 20.21C76.0002 20.21 77.2159 20.21 78.4321 20.21C78.4321 19.78 78.4321 19.35 78.4321 18.92C82.0833 18.9916 85.7313 18.9199 89.3761 18.705C88.1599 18.4183 88.1599 18.1317 89.3761 17.845C93.6315 17.4868 97.8873 17.1285 102.144 16.77C106.55 17.1535 110.959 17.5118 115.368 17.845C114.091 18.3747 112.723 18.6614 111.264 18.705C113.691 18.9197 116.123 18.9914 118.56 18.92C118.56 19.35 118.56 19.78 118.56 20.21C122.614 20.0786 126.566 20.5802 130.416 21.715C128.896 21.8583 127.376 22.0017 125.856 22.145C127.063 22.3589 128.279 22.4306 129.504 22.36C129.504 22.79 129.504 23.22 129.504 23.65C131.032 23.5791 132.552 23.6507 134.064 23.865C135.272 24.9127 134.968 25.4861 133.152 25.585C134.359 25.7989 135.575 25.8706 136.8 25.8C136.8 26.23 136.8 26.66 136.8 27.09C138.328 27.0191 139.848 27.0907 141.36 27.305C142.568 28.3527 142.264 28.9261 140.448 29.025C141.655 29.2389 142.871 29.3106 144.096 29.24C144.096 29.67 144.096 30.1 144.096 30.53C146.711 30.7431 149.295 31.1731 151.848 31.82C151.088 32.1067 150.328 32.3933 149.568 32.68C150.541 33.6121 151.681 34.3288 152.988 34.83C153.064 34.9733 153.14 35.1167 153.216 35.26C152.656 35.5959 152.048 35.8109 151.392 35.905C152.608 36.0483 153.824 36.1917 155.04 36.335C156.72 37.5699 158.544 38.5013 160.512 39.13C160.512 40.2768 160.512 41.4232 160.512 42.57C160.425 43.221 161.642 43.221 164.16 42.57C164.16 43.7168 164.16 44.8632 164.16 46.01C166.189 46.6228 168.013 47.6259 169.632 49.02C167.386 49.4195 167.234 50.1363 169.176 51.17C169.6 51.6813 169.752 52.2545 169.632 52.89C170.306 52.7773 170.914 52.9205 171.456 53.32C171.76 53.8932 172.216 54.3232 172.824 54.61C173.248 55.1213 173.4 55.6945 173.28 56.33C173.888 56.33 174.496 56.33 175.104 56.33C175.029 57.7705 175.105 59.2037 175.332 60.63C176.454 61.1697 176.986 62.0297 176.928 63.21C177.536 63.21 178.144 63.21 178.752 63.21C178.752 64.3568 178.752 65.5032 178.752 66.65C179.36 66.65 179.968 66.65 180.576 66.65C180.576 67.7968 180.576 68.9432 180.576 70.09C181.184 70.09 181.792 70.09 182.4 70.09C182.4 72.3832 182.4 74.6768 182.4 76.97C183.008 76.97 183.616 76.97 184.224 76.97C184.224 78.1168 184.224 79.2632 184.224 80.41C184.832 80.41 185.44 80.41 186.048 80.41C186.048 84.9968 186.048 89.5832 186.048 94.17C186.656 94.17 187.264 94.17 187.872 94.17C187.872 99.9032 187.872 105.637 187.872 111.37C187.264 111.37 186.656 111.37 186.048 111.37C186.048 114.81 186.048 118.25 186.048 121.69C185.44 121.69 184.832 121.69 184.224 121.69C184.224 123.983 184.224 126.277 184.224 128.57C183.616 128.57 183.008 128.57 182.4 128.57C182.4 129.717 182.4 130.863 182.4 132.01C181.792 132.01 181.184 132.01 180.576 132.01C180.576 133.157 180.576 134.303 180.576 135.45C179.968 135.45 179.36 135.45 178.752 135.45C178.827 136.891 178.751 138.324 178.524 139.75C178.21 140.119 177.83 140.405 177.384 140.61C177.007 142.312 176.779 144.032 176.7 145.77C175.822 147.348 175.062 147.348 174.42 145.77C174.131 146.4 173.75 146.974 173.28 147.49C173.846 148.965 173.239 149.538 171.456 149.21C171.456 150.357 171.456 151.503 171.456 152.65C170.288 153.025 169.072 153.025 167.808 152.65C167.682 153.918 167.834 155.136 168.264 156.305C167.363 156.968 166.451 157.183 165.528 156.95C164.384 157.561 163.32 158.278 162.336 159.1C164.582 159.499 164.734 160.216 162.792 161.25C162.368 161.761 162.217 162.334 162.336 162.97C161.12 162.97 159.904 162.97 158.688 162.97C158.919 164.478 158.615 165.84 157.776 167.055C156.586 166.725 155.446 166.51 154.356 166.41C154.075 166.818 154.15 167.176 154.584 167.485C154.193 167.781 153.89 168.139 153.672 168.56C153.83 169.074 154.058 169.074 154.356 168.56C154.568 168.815 154.644 169.102 154.584 169.42Z" fill="url(#paint0_linear_408_903)" fill-opacity="0.45"/>
</g>
<g id="circule">
<path id="Vector_2" fill-rule="evenodd" clip-rule="evenodd" d="M72.96 11.18C71.079 13.7423 68.799 15.964 66.12 17.845C61.4843 20.6762 56.772 23.3996 51.984 26.015C51.5823 26.3196 51.2786 26.6779 51.072 27.09C55.4072 24.8064 59.8153 22.5847 64.296 20.425C79.5693 14.0912 95.5293 11.6545 112.176 13.115C148.822 18.0166 174.433 36.435 189.012 68.37C198.489 93.1986 197.045 117.422 184.68 141.04C184.399 141.783 183.943 142.428 183.312 142.975C182.864 143.229 182.56 143.086 182.4 142.545C194.667 120.446 197.023 97.441 189.468 73.53C179.139 45.7296 159.151 27.1682 129.504 17.845C109.537 12.4638 89.7768 13.0371 70.224 19.565C67.0393 20.7284 63.9991 22.09 61.104 23.65C55.9827 25.827 51.2708 28.622 46.968 32.035C49.3515 31.6892 51.7838 31.4025 54.264 31.175C61.7118 31.0317 69.1601 30.8883 76.608 30.745C79.7977 30.3877 82.6856 29.3127 85.272 27.52C85.7658 27.892 85.8415 28.322 85.5 28.81C80.6869 33.8145 74.6828 36.6095 67.488 37.195C59.5664 37.2326 51.6625 37.5193 43.776 38.055C41.2078 38.5757 38.7755 39.4357 36.48 40.635C32.9132 44.1236 29.9492 47.9218 27.588 52.03C34.8462 46.5647 42.978 42.6233 51.984 40.205C52.932 39.8576 53.844 39.9294 54.72 40.42C51.124 44.3132 47.1723 47.825 42.864 50.955C36.2985 54.0501 29.6104 56.917 22.8 59.555C22.344 59.9132 21.888 60.2718 21.432 60.63C17.7792 67.0237 15.2712 73.76 13.908 80.84C14.79 79.0086 15.8541 77.2886 17.1 75.68C21.508 71.2368 25.916 66.7932 30.324 62.35C31.7595 60.5745 32.8995 58.6395 33.744 56.545C34.1767 56.2797 34.5566 56.3511 34.884 56.76C35.646 62.7727 34.1261 68.2191 30.324 73.1C25.004 78.69 19.38 83.9932 13.452 89.01C12.9593 90.0833 12.3513 91.0869 11.628 92.02C10.006 110.03 13.806 126.943 23.028 142.76C39.7472 168.896 64.2955 183.373 96.672 186.19C109.426 187.015 121.89 185.367 134.064 181.245C134.866 180.902 135.626 180.974 136.344 181.46C108.383 191.673 81.3276 189.738 55.176 175.655C24.482 156.979 9.35803 130.247 9.804 95.46C5.6399 90.0592 3.1319 84.0392 2.28 77.4C1.92295 71.3525 1.31497 65.3325 0.456 59.34C0.354175 58.5479 0.20219 57.7598 0 56.975C0.151985 56.6168 0.304015 56.2582 0.456 55.9C7.66946 62.7731 11.5455 71.0863 12.084 80.84C12.3479 79.9159 12.5759 78.9846 12.768 78.045C10.889 63.2457 13.0169 48.9843 19.152 35.26C19.5282 34.8792 19.9842 34.7358 20.52 34.83C20.6747 43.0314 20.4467 51.2014 19.836 59.34C20.9 58.05 21.964 56.76 23.028 55.47C22.5938 52.4531 22.7458 49.4431 23.484 46.44C26.6496 39.7531 29.6897 33.0164 32.604 26.23C33.6081 21.538 34.2921 16.808 34.656 12.04C35.112 12.04 35.568 12.04 36.024 12.04C37.3938 18.7179 37.926 25.4545 37.62 32.25C36.9333 34.9016 36.1731 37.4816 35.34 39.99C37.3158 38.1268 39.2922 36.2633 41.268 34.4C42.0829 30.6565 43.6027 27.2165 45.828 24.08C53.5034 17.4166 61.9394 11.755 71.136 7.095C73.6736 5.24002 75.3458 2.87502 76.152 0C76.608 0 77.064 0 77.52 0C77.1616 4.17018 75.6417 7.89686 72.96 11.18Z" fill="#EFEFEF"/>
</g>
<g id="e7">
<path id="Vector_3" fill-rule="evenodd" clip-rule="evenodd" d="M76.6081 31.82C77.5324 31.7503 78.4444 31.8219 79.3441 32.035C76.4553 33.8999 73.2633 35.0465 69.7681 35.475C61.8797 36.0035 53.9754 36.2902 46.0561 36.335C39.0756 38.2008 38.7715 37.4841 45.1441 34.185C46.9316 33.6202 48.7556 33.1902 50.6161 32.895C59.3457 32.4473 68.0097 32.089 76.6081 31.82Z" fill="#EFEFEF"/>
</g>
<g id="Group_2">
<path id="Vector_4" fill-rule="evenodd" clip-rule="evenodd" d="M49.2481 28.38C48.9042 29.2167 48.2959 29.5751 47.4241 29.455C47.8668 28.818 48.4747 28.4597 49.2481 28.38Z" fill="#EFEFEF"/>
</g>
<g id="Group_3">
<path id="Vector_5" fill-rule="evenodd" clip-rule="evenodd" d="M51.072 27.09C50.7246 27.8478 50.1163 28.2778 49.248 28.38C49.5955 27.6222 50.2038 27.1922 51.072 27.09Z" fill="#EFEFEF"/>
</g>
<g id="e6">
<path id="Vector_6" fill-rule="evenodd" clip-rule="evenodd" d="M73.8719 6.02C74.1195 6.0458 74.2714 6.18912 74.3279 6.45C72.3717 10.2332 69.6357 13.4582 66.1199 16.125C60.7701 19.5914 55.2981 22.888 49.7039 26.015C47.5001 27.52 45.5999 29.3117 44.0039 31.39C44.5315 27.6059 46.4312 24.5242 49.7039 22.145C56.6862 17.1316 63.9822 12.545 71.5919 8.385C72.446 7.65237 73.2061 6.86401 73.8719 6.02Z" fill="#EFEFEF"/>
</g>
<g id="e5">
<path id="Vector_7" fill-rule="evenodd" clip-rule="evenodd" d="M35.112 18.92C37.76 27.4566 36.62 35.6266 31.692 43.43C29.26 46.5832 26.828 49.7368 24.396 52.89C24.092 51.3132 24.092 49.7368 24.396 48.16C27.0329 41.753 29.9209 35.4465 33.06 29.24C34.2848 25.8927 34.9688 22.4527 35.112 18.92Z" fill="#EFEFEF"/>
</g>
<g id="e4">
<path id="Vector_8" fill-rule="evenodd" clip-rule="evenodd" d="M50.616 41.71C50.953 41.6537 51.2571 41.7255 51.528 41.925C48.4363 45.273 44.9401 48.1398 41.04 50.525C35.2173 53.203 29.2892 55.4967 23.256 57.405C31.1735 50.304 40.2935 45.0722 50.616 41.71Z" fill="#EFEFEF"/>
</g>
<g id="e3">
<path id="Vector_9" fill-rule="evenodd" clip-rule="evenodd" d="M18.6959 39.56C20.1585 51.0702 18.5625 62.2502 13.9079 73.1C12.9779 61.5932 14.5739 50.4132 18.6959 39.56Z" fill="#EFEFEF"/>
</g>
<g id="e2">
<path id="Vector_10" fill-rule="evenodd" clip-rule="evenodd" d="M33.288 59.77C33.7148 63.9522 32.5748 67.8222 29.868 71.38C28.804 72.67 27.74 73.96 26.676 75.25C22.268 79.12 17.86 82.99 13.452 86.86C13.7557 83.5572 14.9717 80.5472 17.1 77.83C21.4106 73.269 25.8187 68.8254 30.324 64.5C31.5525 63.0414 32.5402 61.4646 33.288 59.77Z" fill="#EFEFEF"/>
</g>
<g id="n5">
<path id="Vector_11" fill-rule="evenodd" clip-rule="evenodd" d="M102.6 64.5C118.426 62.8247 130.359 68.4147 138.396 81.27C141.698 86.6385 144.511 92.2285 146.832 98.04C146.68 98.1832 146.528 98.3268 146.376 98.47C142.611 87.7071 136.379 78.4621 127.68 70.735C122.849 67.2301 117.377 65.4387 111.264 65.36C111.264 76.3968 111.264 87.4332 111.264 98.47C108.376 98.47 105.488 98.47 102.6 98.47C102.6 87.1468 102.6 75.8232 102.6 64.5Z" fill="#EFEFEF"/>
</g>
<g id="n4">
<path id="Vector_12" fill-rule="evenodd" clip-rule="evenodd" d="M154.128 64.5C157.168 64.5 160.208 64.5 163.248 64.5C163.248 75.8232 163.248 87.1468 163.248 98.47C160.208 98.47 157.168 98.47 154.128 98.47C154.128 87.1468 154.128 75.8232 154.128 64.5Z" fill="#EFEFEF"/>
</g>
<g id="e1">
<path id="Vector_13" fill-rule="evenodd" clip-rule="evenodd" d="M1.82397 59.34C7.68266 65.8769 10.5706 73.4737 10.488 82.13C10.3681 85.8624 10.1401 89.5892 9.80397 93.31C7.10122 89.5019 5.27722 85.3451 4.33197 80.84C3.34505 73.6822 2.50902 66.5154 1.82397 59.34Z" fill="#EFEFEF"/>
</g>
<g id="s2">
<path id="Vector_14" fill-rule="evenodd" clip-rule="evenodd" d="M61.104 61.06C72.033 59.8663 82.065 62.0877 91.2 67.725C92.8124 69.1014 94.2566 70.6064 95.532 72.24C95.8362 76.3968 95.8362 80.5532 95.532 84.71C91.0965 76.2274 84.4845 69.706 75.696 65.145C66.9321 61.3098 58.2681 61.453 49.704 65.575C42.18 69.9511 40.8882 75.6125 45.828 82.56C52.2079 89.4292 59.8837 94.6606 68.856 98.255C61.8642 98.5418 54.8718 98.5418 47.88 98.255C37.8393 89.6829 36.3956 80.0079 43.548 69.23C48.4897 64.7141 54.3415 61.9909 61.104 61.06Z" fill="#EFEFEF"/>
</g>
<g id="sana8">
<path id="Vector_15" fill-rule="evenodd" clip-rule="evenodd" d="M117.192 104.49C116.257 103.743 115.421 102.883 114.684 101.91C114.532 103.2 114.38 104.49 114.228 105.78C113.447 99.6228 114.435 99.1928 117.192 104.49Z" fill="#EFEFEF"/>
</g>
<g id="sana7">
<path id="Vector_16" fill-rule="evenodd" clip-rule="evenodd" d="M81.624 106.35C82.1639 105.839 82.1639 105.337 81.624 104.845C80.5925 104.569 79.6044 104.211 78.66 103.77C78.5848 101.845 79.5729 101.2 81.624 101.835C81.9282 102.122 82.2318 102.408 82.536 102.695C77.8114 102.573 77.7357 103.218 82.308 104.63C82.6929 105.474 82.4649 106.047 81.624 106.35Z" fill="#EFEFEF"/>
</g>
<g id="sana6">
<path id="Vector_17" fill-rule="evenodd" clip-rule="evenodd" d="M134.064 100.62C134.634 100.653 135.014 100.94 135.204 101.48C135.951 102.874 136.407 104.308 136.572 105.78C136.309 104.769 135.625 104.339 134.52 104.49C133.413 104.65 132.501 105.008 131.784 105.565C132.609 103.937 133.369 102.289 134.064 100.62Z" fill="#EFEFEF"/>
</g>
<g id="sana5">
<path id="Vector_18" fill-rule="evenodd" clip-rule="evenodd" d="M134.064 101.91C134.76 102.17 135.216 102.672 135.432 103.415C134.773 103.751 134.166 103.679 133.608 103.2C133.894 102.806 134.046 102.376 134.064 101.91Z" fill="#EFEFEF"/>
</g>
<g id="sana4">
<path id="Vector_19" fill-rule="evenodd" clip-rule="evenodd" d="M117.192 104.49C117.984 103.412 118.364 102.122 118.332 100.62C118.709 102.358 118.633 104.078 118.104 105.78C117.457 105.563 117.153 105.133 117.192 104.49Z" fill="#EFEFEF"/>
</g>
<g id="sana3">
<path id="Vector_20" fill-rule="evenodd" clip-rule="evenodd" d="M97.584 100.62C98.0382 100.583 98.4181 100.727 98.724 101.05C99.2831 102.534 99.9671 103.968 100.776 105.35C100.624 105.493 100.472 105.637 100.32 105.78C99.916 105.425 99.7642 104.995 99.864 104.49C98.2808 104.259 96.989 104.689 95.988 105.78C96.3665 104.051 96.8982 102.331 97.584 100.62Z" fill="#EFEFEF" fill-opacity="0.996078"/>
</g>
<g id="sana2">
<path id="Vector_21" fill-rule="evenodd" clip-rule="evenodd" d="M98.04 101.48C98.6925 102.03 98.9967 102.747 98.952 103.63C98.496 103.63 98.04 103.63 97.584 103.63C97.6428 102.892 97.7947 102.175 98.04 101.48Z" fill="#EFEFEF"/>
</g>
<g id="sana1">
<path id="Vector_22" fill-rule="evenodd" clip-rule="evenodd" d="M81.624 105.35C80.8086 105.832 79.8966 105.904 78.888 105.565C78.4242 105.114 78.3481 104.612 78.66 104.06C79.328 105.098 80.3162 105.528 81.624 105.35Z" fill="#EFEFEF"/>
</g>
<g id="n3">
<path id="Vector_23" fill-rule="evenodd" clip-rule="evenodd" d="M102.6 109.65C105.488 109.65 108.376 109.65 111.264 109.65C111.264 121.117 111.264 132.583 111.264 144.05C108.376 144.05 105.488 144.05 102.6 144.05C102.6 132.583 102.6 121.117 102.6 109.65Z" fill="#EFEFEF"/>
</g>
<g id="n2">
<path id="Vector_24" fill-rule="evenodd" clip-rule="evenodd" d="M153.672 125.56C153.668 126.337 153.896 127.054 154.356 127.71C154.584 121.692 154.66 115.672 154.584 109.65C157.472 109.65 160.36 109.65 163.248 109.65C163.248 121.117 163.248 132.583 163.248 144.05C160.208 144.05 157.168 144.05 154.128 144.05C154.346 132.433 152.826 121.038 149.568 109.865C150.001 109.6 150.381 109.671 150.708 110.08C152.041 115.188 153.03 120.348 153.672 125.56Z" fill="#EFEFEF"/>
</g>
<g id="s1">
<path id="Vector_25" fill-rule="evenodd" clip-rule="evenodd" d="M70.224 110.08C76.6814 109.581 83.2172 109.509 89.832 109.865C96.4399 116.094 98.4919 123.475 95.988 132.01C93.0755 138.446 87.9838 142.531 80.712 144.265C61.466 147.581 45.4299 142.349 32.604 128.57C32.2998 123.267 32.2998 117.963 32.604 112.66C37.2657 123.934 44.9415 132.892 55.632 139.535C65.7543 145.552 76.0904 145.982 86.64 140.825C94.5634 135.059 95.0956 128.681 88.236 121.69C83.0289 116.706 77.0247 112.836 70.224 110.08Z" fill="#EFEFEF"/>
</g>
<g id="n1">
<path id="Vector_26" fill-rule="evenodd" clip-rule="evenodd" d="M154.584 109.65C154.66 115.672 154.584 121.692 154.356 127.71C153.896 127.054 153.668 126.337 153.672 125.56C153.976 120.257 154.28 114.953 154.584 109.65Z" fill="#EFEFEF"/>
</g>
<g id="punto4">
<path id="Vector_27" fill-rule="evenodd" clip-rule="evenodd" d="M180.576 147.92C180.685 148.766 180.533 149.554 180.12 150.285C178.753 150.668 177.537 150.453 176.472 149.64C176.474 147.28 177.69 146.492 180.12 147.275C180.373 147.44 180.525 147.655 180.576 147.92Z" fill="#EFEFEF"/>
</g>
<g id="punto3">
<path id="Vector_28" fill-rule="evenodd" clip-rule="evenodd" d="M167.352 158.67C170.538 158.597 171.298 159.816 169.632 162.325C166.608 162.362 165.848 161.144 167.352 158.67Z" fill="#EFEFEF"/>
</g>
<g id="punto2">
<path id="Vector_29" fill-rule="evenodd" clip-rule="evenodd" d="M154.584 169.85C154.584 169.707 154.584 169.563 154.584 169.42C155.494 168.632 156.558 168.417 157.776 168.775C158.952 169.869 158.952 170.944 157.776 172C155.588 172.806 154.524 172.089 154.584 169.85Z" fill="#EFEFEF"/>
</g>
<g id="punto1">
<path id="Vector_30" fill-rule="evenodd" clip-rule="evenodd" d="M141.816 176.3C145.196 176.386 145.804 177.604 143.64 179.955C141.034 180.127 140.274 179.052 141.36 176.73C141.664 176.73 141.816 176.587 141.816 176.3Z" fill="#EFEFEF"/>
</g>
</g>
</g>
<defs>
<linearGradient id="paint0_linear_408_903" x1="67.5" y1="186" x2="185" y2="28" gradientUnits="userSpaceOnUse">
<stop stop-color="#EFEFEF"/>
<stop offset="0.655" stop-color="#FCFCFC" stop-opacity="0"/>
</linearGradient>
</defs>
</svg>
